<?xml version="1.0" encoding="utf-8"?>
<!-- Generator: Adobe Illustrator 21.0.0, SVG Export Plug-In . SVG Version: 6.00 Build 0)  -->
<svg version="1.1" id="Layer_1" xmlns="http://www.w3.org/2000/svg" xmlns:xlink="http://www.w3.org/1999/xlink" x="0px" y="0px"
	 viewBox="0 0 172 172" enable-background="new 0 0 172 172" xml:space="preserve">
<title>download-pdf</title>
<g id="Layer_2">
	<g id="Layer_1-2">
		<circle fill="#FFFFFF" cx="86" cy="86" r="29.22"/>
		<path id="Oval-2-4" fill="#DF0038" d="M86,111.66c14.172,0,25.66-11.488,25.66-25.66S100.172,60.34,86,60.34
			S60.34,71.828,60.34,86S71.828,111.66,86,111.66L86,111.66z M86,113.16C71,113.16,58.84,101,58.84,86S71,58.84,86,58.84
			S113.16,71,113.16,86S101,113.16,86,113.16L86,113.16z"/>
		<g id="icon_pdf">
			<g id="pdf">
				<path id="path-7" fill="#DF0038" d="M87.29,88.77h-0.78v-3.18h0.71c0.787-0.062,1.476,0.526,1.538,1.314
					c0.008,0.099,0.005,0.198-0.008,0.296c0.095,0.767-0.45,1.466-1.218,1.561C87.452,88.771,87.371,88.774,87.29,88.77z
					 M87.23,84.59h-1.29c-0.302-0.028-0.57,0.195-0.598,0.498c-0.002,0.021-0.003,0.042-0.002,0.062v4.08
					c-0.002,0.304,0.243,0.551,0.547,0.553c0.021,0,0.042-0.001,0.063-0.003h1.35c1.334,0.151,2.537-0.808,2.687-2.142
					c0.015-0.129,0.019-0.259,0.013-0.388c0.106-1.371-0.919-2.569-2.29-2.675c-0.146-0.011-0.294-0.01-0.44,0.005L87.23,84.59z
					 M93.51,84.59h-1.84c-0.298-0.011-0.549,0.221-0.56,0.519c-0.001,0.014-0.001,0.027,0,0.041v4.06c0,0.298,0.242,0.54,0.54,0.54
					s0.54-0.242,0.54-0.54V88.1h1.11c0.27,0.017,0.503-0.189,0.52-0.459c0.001-0.017,0.001-0.034,0-0.051
					c0.006-0.265-0.203-0.485-0.468-0.492c-0.017,0-0.035,0-0.052,0.002h-1.11v-1.52h1.32c0.276,0,0.5-0.224,0.5-0.5
					s-0.224-0.5-0.5-0.5V84.59z M83,87.07h-0.69v-1.53H83c0.423,0.048,0.726,0.43,0.677,0.853C83.637,86.748,83.356,87.029,83,87.07
					z M83,84.58h-1.2c-0.276-0.019-0.514,0.19-0.533,0.465c-0.002,0.032-0.001,0.063,0.003,0.095v4.06
					c-0.056,0.276,0.123,0.545,0.399,0.601c0.276,0.056,0.545-0.123,0.601-0.4c0.013-0.066,0.013-0.135,0-0.201V88h0.75
					c0.905,0.028,1.662-0.682,1.691-1.588c0.001-0.041,0.001-0.082-0.001-0.122c0.023-0.917-0.702-1.678-1.619-1.7
					c-0.03-0.001-0.061-0.001-0.091,0V84.58z M96.52,96c0.006,0.514-0.406,0.934-0.92,0.94c-0.003,0-0.007,0-0.01,0H79.1
					c-0.514,0-0.93-0.416-0.93-0.93c0-0.003,0-0.007,0-0.01V76.67c0-0.514,0.416-0.93,0.93-0.93l0,0h11.49l0.19,0.19v4.2
					c0,0.758,0.612,1.375,1.37,1.38h4.2l0.17,0.17V96z M97.28,81.16L91.09,75c-0.082-0.083-0.194-0.129-0.31-0.13H79.1
					c-1.007,0.006-1.82,0.823-1.82,1.83V96c0,1.007,0.813,1.825,1.82,1.83h16.49c1.003-0.011,1.81-0.827,1.81-1.83V81.49
					c0.001-0.12-0.046-0.235-0.13-0.32L97.28,81.16z"/>
			</g>
		</g>
	</g>
</g>
</svg>
