<?xml version="1.0" encoding="UTF-8"?>
<svg width="261px" height="169px" viewBox="0 0 261 169" version="1.1" xmlns="http://www.w3.org/2000/svg" xmlns:xlink="http://www.w3.org/1999/xlink">
    <!-- Generator: Sketch 44.1 (41455) - http://www.bohemiancoding.com/sketch -->
    <title>Shape</title>
    <desc>Created with Sketch.</desc>
    <defs></defs>
    <g id="Page-1" stroke="none" stroke-width="1" fill="none" fill-rule="evenodd">
        <g id="webbio-sales-page-992" transform="translate(-366.000000, -544.000000)" fill-rule="nonzero" fill="#231F20">
            <g id="ufo" transform="translate(366.000000, 544.000000)">
                <path d="M39.4191171,18.5952737 C39.6493843,18.5952737 39.8569779,18.455993 39.9450974,18.242378 C40.0332168,18.0287629 39.9845085,17.7828813 39.821685,17.6193874 C39.6588615,17.4558936 39.4139881,17.4069847 39.2012489,17.4954669 C38.9885098,17.5839492 38.8498001,17.7923975 38.8498001,18.0236128 C38.8498001,18.3393324 39.104692,18.5952737 39.4191171,18.5952737 Z M247.582741,56.8108092 C247.425528,56.8108092 247.298082,56.9387799 247.298082,57.0966397 C247.298082,57.2544995 247.425528,57.3824702 247.582741,57.3824702 C247.739953,57.3824702 247.867399,57.2544995 247.867399,57.0966397 C247.867399,56.9387799 247.739953,56.8108092 247.582741,56.8108092 L247.582741,56.8108092 Z M250.948827,144.496455 L236.715904,134.906843 C236.354762,134.661733 235.88148,134.661733 235.520338,134.906843 L211.35995,151.456428 C211.06487,151.655539 210.887876,151.989093 210.887876,152.346075 C210.887876,152.703057 211.06487,153.036611 211.35995,153.235722 L225.592874,162.825335 C225.954016,163.070445 226.427298,163.070445 226.78844,162.825335 L250.98441,146.304333 C251.27949,146.105222 251.456484,145.771668 251.456484,145.414686 C251.456484,145.057704 251.27949,144.72415 250.98441,144.525038 L250.948827,144.496455 Z M226.169307,160.617295 L213.850712,152.321065 L236.125237,137.100592 L248.443833,145.396821 L226.169307,160.617295 Z M253.026834,56.5964364 C252.948228,56.5964364 252.884505,56.6604217 252.884505,56.7393516 C252.884505,56.8182815 252.948228,56.8822668 253.026834,56.8822668 C253.10544,56.8822668 253.169163,56.8182815 253.169163,56.7393516 C253.169163,56.6604217 253.10544,56.5964364 253.026834,56.5964364 Z M34.6724371,18.0664874 C34.6724371,17.6718378 34.3538222,17.3519112 33.9607909,17.3519112 C33.5677596,17.3519112 33.2491447,17.6718378 33.2491447,18.0664874 C33.2491447,18.4611369 33.5677596,18.7810636 33.9607909,18.7810636 C34.3538222,18.7810636 34.6724371,18.4611369 34.6724371,18.0664874 Z M55.7727463,17.4305145 C55.8513525,17.4305145 55.9150755,17.3665292 55.9150755,17.2875993 C55.9150755,17.2086694 55.8513525,17.1446841 55.7727463,17.1446841 C55.69414,17.1446841 55.630417,17.2086694 55.630417,17.2875993 C55.630417,17.3665292 55.69414,17.4305145 55.7727463,17.4305145 Z M260.107714,56.1605449 C256.506737,53.0171496 252.329643,50.6093153 247.810468,49.0719489 C244.3668,43.1047381 238.0129,39.4370538 231.144507,39.4517966 C224.276114,39.4665394 217.937888,43.1614669 214.519659,49.1434065 C210.034099,50.6617649 205.889621,53.0508881 202.322044,56.1748364 C201.534345,56.8938771 201.240052,58.0100574 201.570235,59.0262708 C201.900417,60.0424842 202.793635,60.7696417 203.852083,60.8838936 C204.720291,60.9767885 205.609849,61.0625376 206.51364,61.141141 C206.524281,61.2068584 206.540957,61.2714457 206.563455,61.3340766 C207.53015,64.0840849 210.043147,65.9852656 212.942269,66.1598979 C215.84139,66.3345302 218.562717,64.7486457 219.849889,62.134402 C219.875762,62.0815053 219.897186,62.0265298 219.913937,61.9700494 L222.931317,62.0629443 L212.256625,141.90969 C212.218219,142.192179 212.29348,142.478393 212.465762,142.705024 C212.638043,142.931656 212.893147,143.080028 213.174648,143.117323 L213.316977,143.117323 C213.849727,143.114966 214.299185,142.718547 214.370214,142.188374 L224.724666,64.7497509 C226.343363,66.4697673 228.59479,67.4463883 230.95157,67.4508489 L231.499537,67.4508489 C233.695799,67.31647 235.75565,66.3360601 237.249638,64.7140221 L248.237455,138.465432 C248.314902,138.989932 248.762634,139.378754 249.290692,139.38009 L249.447254,139.38009 C249.7277,139.337797 249.97986,139.185189 250.148086,138.955942 C250.316312,138.726695 250.386776,138.439654 250.343928,138.158164 L239.014521,62.0700901 C240.342927,62.0367432 241.654728,61.9962506 242.949924,61.9486121 C242.967855,62.0126246 242.991679,62.0748226 243.021089,62.134402 C244.305068,64.7537311 247.027903,66.3447409 249.930246,66.1715683 C252.832589,65.9983956 255.348619,64.0948011 256.314639,61.3412224 C256.340081,61.264766 256.356793,61.1856557 256.364455,61.1054122 L258.570558,60.8910394 C259.635582,60.7817564 260.536138,60.0518869 260.86728,59.0296252 C261.198423,58.0073635 260.897803,56.8851852 260.100597,56.1676906 L260.107714,56.1605449 Z M213.366793,64.0208831 C211.491133,64.0177282 209.768857,62.9801078 208.883422,61.3197851 C211.637492,61.5413037 214.526776,61.712802 217.522806,61.8485715 C216.57892,63.2182733 215.025603,64.0355202 213.366793,64.0351747 L213.366793,64.0208831 Z M231.364324,65.2713915 C228.947778,65.4319345 226.645078,64.2206605 225.400729,62.134402 C227.315058,62.134402 229.250735,62.1915681 231.214879,62.1915681 C233.001111,62.1915681 234.77311,62.1915681 236.50241,62.1415477 C235.418803,63.9851926 233.49261,65.1665615 231.364324,65.2928288 L231.364324,65.2713915 Z M249.504186,64.0208831 C247.840346,64.0259306 246.280684,63.2081462 245.333939,61.83428 C248.351319,61.6961286 251.242974,61.5127207 254.008906,61.2840563 C253.133286,62.9705321 251.398284,64.0301305 249.504186,64.0351747 L249.504186,64.0208831 Z M258.840983,58.3042735 C258.773922,58.5245861 258.578786,58.6807698 258.349948,58.6972904 C249.332747,59.5919374 240.275931,60.0236272 231.214879,59.9906733 C222.151935,60.0335309 213.09273,59.6113806 204.072693,58.7258735 C203.852245,58.7058742 203.666183,58.5530145 203.603007,58.3400023 C203.528025,58.124379 203.589822,57.8846335 203.759569,57.7326125 C207.216934,54.719082 211.241217,52.4325869 215.594245,51.0084504 C215.842591,50.9218582 216.05038,50.7462913 216.177795,50.5153929 C219.210326,45.0214407 224.959368,41.5982466 231.214879,41.561753 C236.935367,41.5642125 242.26877,44.4635777 245.397987,49.2720303 C240.704868,49.991499 235.962255,50.3355772 231.214879,50.30102 C228.425226,50.30102 225.735203,50.2009793 223.201743,50.000898 C222.612196,49.9555133 222.097633,50.3986117 222.052434,50.990586 C222.007236,51.5825603 222.448517,52.0992419 223.038064,52.1446266 C225.62134,52.3447079 228.37541,52.4447486 231.214879,52.4447486 C236.561784,52.4969225 241.902282,52.0592173 247.169986,51.1370742 C251.397534,52.5810945 255.305628,54.8356196 258.677305,57.7754871 C258.839797,57.9197433 258.903728,58.1458183 258.840983,58.3542938 L258.840983,58.3042735 Z M50.328653,17.8806975 C50.4437866,17.8806975 50.5475834,17.8110572 50.5916431,17.7042497 C50.6357029,17.5974421 50.6113487,17.4745013 50.5299369,17.3927544 C50.4485252,17.3110074 50.3260885,17.286553 50.2197189,17.3307941 C50.1133493,17.3750353 50.0439945,17.4792594 50.0439945,17.5948671 C50.0291117,17.6788853 50.052394,17.7651862 50.1074756,17.8301736 C50.1625572,17.895161 50.2436762,17.9320366 50.328653,17.9307179 L50.328653,17.8806975 Z M44.8774433,18.2665687 C45.1132621,18.2665687 45.304431,18.0746127 45.304431,17.837823 C45.304431,17.6010332 45.1132621,17.4090772 44.8774433,17.4090772 C44.6416245,17.4090772 44.4504556,17.6010332 44.4504556,17.837823 C44.4383493,17.9587593 44.4779319,18.079172 44.5593571,18.1691085 C44.6407824,18.2590451 44.7563975,18.3100527 44.8774433,18.3094433 L44.8774433,18.2665687 Z M4.71924941,124.302532 C5.29492422,124.42621 5.86164466,124.058563 5.98597961,123.480769 L27.2855497,25.0907715 C28.9109234,26.9304986 31.2411407,27.9860135 33.6903653,27.9919509 L34.2383329,27.9919509 C36.4949927,27.8570394 38.6063061,26.8291576 40.1094139,25.133646 L63.5937378,140.559141 C63.7116472,141.139275 64.2755955,141.513589 64.8533515,141.395195 C65.4311075,141.2768 65.8038869,140.71053 65.6859775,140.130395 L41.7888989,22.611192 C43.1078164,22.5778451 44.410129,22.5373525 45.6958364,22.4897141 C45.7138444,22.5537007 45.7376659,22.6158918 45.767001,22.6755039 C47.0490524,25.2995191 49.7743971,26.8944397 52.680078,26.7211607 C55.5857589,26.5478816 58.1039407,24.6402655 59.0676681,21.8823243 C59.0931098,21.8058679 59.1098219,21.7267576 59.1174833,21.6465141 L61.3307029,21.4321413 C62.3957273,21.3228583 63.2962833,20.5929889 63.6274256,19.5707272 C63.9585679,18.5484655 63.6579476,17.4262871 62.8607422,16.7087926 C59.249317,13.5612359 55.0597578,11.1531839 50.5279139,9.62019661 C47.0842463,3.65298583 40.7303466,-0.0146985006 33.8619534,4.42786841e-05 C26.9935602,0.014787058 20.6553348,3.70971462 17.2371057,9.69165423 C12.7590275,11.2123838 8.62198253,13.6014037 5.06083958,16.7230841 C4.29173738,17.4449189 4.00973408,18.5493244 4.33806059,19.5536933 C4.6663871,20.5580621 5.54535869,21.2798153 6.59087886,21.4035582 C7.4590872,21.4964531 8.34864492,21.5822023 9.25243557,21.6608057 C9.26307694,21.726523 9.27975315,21.7911104 9.3022508,21.8537412 C10.2666663,24.6080988 12.7818097,26.5132852 15.6842589,26.6880243 C18.5867081,26.8627634 21.3105405,25.2729845 22.5958014,22.6540666 C22.6216739,22.60117 22.6430979,22.5461944 22.6598496,22.4897141 L25.6416471,22.5754632 L3.90797277,122.994857 C3.83788327,123.276611 3.88465234,123.574864 4.03757673,123.821358 C4.19050111,124.067853 4.43649053,124.24149 4.71924941,124.302532 L4.71924941,124.302532 Z M34.1102366,25.8339307 C31.6872012,25.9830375 29.385753,24.7544101 28.1537581,22.6540666 C30.0680863,22.6540666 32.0037639,22.7112327 33.9679074,22.7112327 C35.7541393,22.7112327 37.5261383,22.7112327 39.2554385,22.6612124 C38.1755598,24.5151067 36.2453108,25.7053683 34.1102366,25.8339307 L34.1102366,25.8339307 Z M52.2500977,24.5834224 C50.5862582,24.5884698 49.0265959,23.7706854 48.0798511,22.3968192 C51.0972309,22.2586678 53.9888865,22.0752599 56.754818,21.8465955 C55.8765494,23.5286749 54.1415498,24.5827678 52.2500977,24.5834224 L52.2500977,24.5834224 Z M16.1127047,24.5834224 C14.2370456,24.5802674 12.5147693,23.542647 11.6293338,21.8823243 C14.3834045,22.1038429 17.272688,22.2753412 20.2687184,22.4111107 C19.3216669,23.7753907 17.7688815,24.587018 16.1127047,24.5834224 Z M6.81148918,19.2955584 C6.59104112,19.2755592 6.40497861,19.1226994 6.3418027,18.9096873 C6.26682076,18.694064 6.32861811,18.4543185 6.49836486,18.3022975 C9.95584194,15.2889259 13.9800909,13.00245 18.3330408,11.5781354 C18.5813864,11.4915432 18.7891756,11.3159763 18.9165907,11.0850778 C21.9448068,5.58063032 27.6982339,2.14824761 33.9607909,2.11000069 C39.6771858,2.10772675 45.0097215,4.9985609 48.1438992,9.79884066 C43.4507798,10.5183094 38.7081675,10.8623876 33.9607909,10.8278304 C31.1711379,10.8278304 28.4811153,10.7277897 25.9476549,10.5277084 C25.3581079,10.4823237 24.843545,10.9254221 24.7983464,11.5173964 C24.7531478,12.1093707 25.1944293,12.6260523 25.7839763,12.671437 C28.3672519,12.8715183 31.1213226,12.971559 33.9607909,12.971559 C39.307706,13.0240112 44.6482294,12.586304 49.9158982,11.6638846 C54.1434464,13.1079049 58.05154,15.36243 61.4232169,18.3022975 C61.5955483,18.4533204 61.6611332,18.6932406 61.589733,18.9114401 C61.5183329,19.1296396 61.3238133,19.283745 61.0958597,19.3027042 C52.0758115,20.1880499 43.0166145,20.6101999 33.9536744,20.5675041 C24.8906097,20.6079869 15.8314042,20.1834516 6.81148918,19.2955584 L6.81148918,19.2955584 Z M150.813093,37.9459974 C150.577275,37.9459974 150.386106,38.1379534 150.386106,38.3747431 C150.386106,38.6115328 150.577275,38.8034888 150.813093,38.8034888 C151.048912,38.8034888 151.240081,38.6115328 151.240081,38.3747431 C151.236197,38.1407487 151.046161,37.9531107 150.813093,37.9531432 L150.813093,37.9459974 Z M156.264303,37.8459567 C156.107091,37.8459567 155.979645,37.9739274 155.979645,38.1317872 C155.979645,38.289647 156.107091,38.4176177 156.264303,38.4176177 C156.421516,38.4176177 156.548962,38.289647 156.548962,38.1317872 C156.550873,38.0559736 156.5227,37.9825051 156.470646,37.9275561 C156.418592,37.8726071 156.346924,37.8406826 156.27142,37.838811 L156.264303,37.8459567 Z M161.708396,37.6315839 C161.62979,37.6315839 161.566067,37.6955692 161.566067,37.7744991 C161.566067,37.853429 161.62979,37.9174143 161.708396,37.9174143 C161.787003,37.9174143 161.850726,37.853429 161.850726,37.7744991 C161.847151,37.7010537 161.788657,37.6423186 161.715513,37.6387296 L161.708396,37.6315839 Z M66.9740571,147.883547 L30.1463674,121.10123 C29.7788766,120.843014 29.2898267,120.843014 28.922336,121.10123 L0.456488799,140.27331 C0.170443608,140.473793 2.83119284e-15,140.801967 0,141.152239 C-2.83119284e-15,141.502511 0.170443608,141.830685 0.456488799,142.031168 L37.2841786,168.806338 C37.6516693,169.064554 38.1407192,169.064554 38.50821,168.806338 L66.9740571,149.634258 C67.2601023,149.433776 67.4305459,149.105601 67.4305459,148.75533 C67.4305459,148.405058 67.2601023,148.076884 66.9740571,147.876401 L66.9740571,147.883547 Z M37.9246601,166.612589 L2.9330175,141.173676 L29.4987694,123.273542 L64.4832955,148.705309 L37.9246601,166.612589 Z M145.383233,37.9459974 C145.068808,37.9459974 144.813916,38.2019387 144.813916,38.5176584 C144.813916,38.833378 145.068808,39.0893193 145.383233,39.0893193 C145.697658,39.0893193 145.95255,38.833378 145.95255,38.5176584 C145.952745,38.3609597 145.888872,38.2110501 145.775866,38.1029819 C145.66286,37.9949138 145.510628,37.9381623 145.354767,37.9459974 L145.383233,37.9459974 Z M156.520496,30.0856591 C153.076828,24.1184484 146.722929,20.450764 139.854535,20.4655068 C132.986142,20.4802496 126.647917,24.1751771 123.229688,30.1571168 C118.736828,31.6823408 114.587211,34.081351 111.017839,37.2171297 C110.23014,37.9361704 109.935848,39.0523507 110.26603,40.0685641 C110.596212,41.0847775 111.489431,41.811935 112.547878,41.9261869 C113.416087,42.0190818 114.305644,42.1048309 115.209435,42.1834343 C115.220036,42.2491602 115.236713,42.3137512 115.25925,42.3763699 C116.223666,45.1307274 118.738809,47.0359138 121.641258,47.2106529 C124.543708,47.3853921 127.26754,45.7956132 128.552801,43.1766952 C128.578584,43.1237591 128.600005,43.0687911 128.616849,43.0123427 L131.61288,43.0980918 L114.533371,135.607127 C114.481386,135.886675 114.542166,136.175508 114.702331,136.410044 C114.862496,136.644579 115.108917,136.805592 115.387347,136.857636 L115.586608,136.857636 C116.100568,136.855743 116.540217,136.486358 116.632727,135.978707 L133.292365,45.6562747 C134.912187,47.4653241 137.217528,48.5033657 139.640248,48.5145795 L140.188216,48.5145795 C142.447391,48.3815235 144.561591,47.353482 146.066413,45.6562747 L163.857568,132.041392 C163.977442,132.621527 164.542984,132.994242 165.12074,132.873873 C165.698496,132.753505 166.069682,132.185635 165.949808,131.605501 L147.731665,43.1123834 C149.050583,43.0790365 150.352896,43.0385438 151.638603,42.9909054 C151.656455,43.0549442 151.680282,43.1171496 151.709768,43.1766952 C152.995029,45.7956132 155.718861,47.3853921 158.62131,47.2106529 C161.523759,47.0359138 164.038903,45.1307274 165.003318,42.3763699 C165.02876,42.2999135 165.045472,42.2208032 165.053133,42.1405597 L167.266353,41.9261869 C168.331377,41.8169039 169.231933,41.0870344 169.563076,40.0647727 C169.894218,39.042511 169.593598,37.9203327 168.796392,37.2028381 C165.193198,34.0587917 161.013649,31.6509352 156.49203,30.1142422 L156.520496,30.0856591 Z M122.055471,45.0774679 C120.181339,45.0757267 118.459434,44.0410742 117.5721,42.3835156 C120.326171,42.6050343 123.215455,42.7765325 126.211485,42.912302 C125.262856,44.2738725 123.710335,45.082692 122.055471,45.0774679 Z M140.053003,46.3279763 C137.630329,46.475413 135.329696,45.247221 134.096525,43.1481122 C136.010853,43.1481122 137.946531,43.2052783 139.910674,43.2052783 C141.696906,43.2052783 143.468905,43.2052783 145.198205,43.1552579 C144.11866,45.0139217 142.184948,46.2073536 140.045887,46.3351221 L140.053003,46.3279763 Z M158.192864,45.0774679 C156.529025,45.0825154 154.969363,44.264731 154.022618,42.8908647 C157.039998,42.7527133 159.931653,42.5693054 162.697585,42.3406411 C161.81813,44.0249953 160.079756,45.0794719 158.185748,45.0774679 L158.192864,45.0774679 Z M167.529662,39.3608583 C167.462601,39.5811709 167.267465,39.7373546 167.038626,39.7538752 C158.018572,40.6391341 148.959379,41.0612838 139.896441,41.0186751 C130.833499,41.0614828 121.774296,40.6393326 112.754256,39.7538752 C112.533808,39.733876 112.347745,39.5810162 112.284569,39.368004 C112.209587,39.1523808 112.271385,38.9126352 112.441131,38.7606143 C115.898609,35.7472427 119.922858,33.4607667 124.275807,32.0364522 C124.524153,31.9498599 124.731942,31.774293 124.859357,31.5433946 C127.884476,26.0384098 133.634939,22.6034392 139.896441,22.5611717 C145.615359,22.5564869 150.951105,25.4476108 154.086666,30.2500117 C149.391199,30.9698579 144.646192,31.3139372 139.896441,31.2790014 C137.113905,31.2790014 134.416765,31.1789607 131.883305,30.9788794 C131.600296,30.9532405 131.318976,31.0435152 131.103227,31.2292048 C130.887477,31.4148944 130.755605,31.6802419 130.737555,31.9649946 C130.692592,32.5549182 131.132157,33.0698555 131.719626,33.1154622 C134.310019,33.3155436 137.064089,33.4155843 139.896441,33.4155843 C145.241835,33.4845134 150.582344,33.0635502 155.851548,32.1579301 C160.079022,33.6021165 163.987085,35.8566241 167.358867,38.7963431 C167.532513,38.9426403 167.600126,39.1802571 167.529662,39.3965871 L167.529662,39.3608583 Z M167.344634,139.637337 L147.418541,126.224742 C147.060649,125.986016 146.595101,125.986016 146.237209,126.224742 L112.455364,148.376604 C112.157208,148.575193 111.977961,148.910563 111.977961,149.269824 C111.977961,149.629086 112.157208,149.964456 112.455364,150.163045 L132.367224,163.604223 C132.725117,163.842949 133.190665,163.842949 133.548557,163.604223 L167.330401,141.452361 C167.628558,141.253772 167.807805,140.918402 167.807805,140.559141 C167.807805,140.199879 167.628558,139.864509 167.330401,139.66592 L167.344634,139.637337 Z M132.972124,161.460495 L114.988825,149.312699 L146.827875,128.418491 L164.811174,140.566286 L132.972124,161.460495 Z M139.896441,37.838811 C139.50341,37.838811 139.184795,38.1587376 139.184795,38.5533872 C139.184795,38.9480367 139.50341,39.2679634 139.896441,39.2679634 C140.289472,39.2679634 140.608087,38.9480367 140.608087,38.5533872 C140.608087,38.1587376 140.289472,37.838811 139.896441,37.838811 L139.896441,37.838811 Z M242.124415,56.9108499 C241.888596,56.9108499 241.697427,57.1028059 241.697427,57.3395956 C241.697427,57.5763853 241.888596,57.7683413 242.124415,57.7683413 C242.360233,57.7683413 242.551402,57.5763853 242.551402,57.3395956 C242.551402,57.1028059 242.360233,56.9108499 242.124415,56.9108499 Z M231.207762,56.8036635 C230.814731,56.8036635 230.496116,57.1235901 230.496116,57.5182397 C230.496116,57.9128892 230.814731,58.2328159 231.207762,58.2328159 C231.600794,58.2328159 231.919408,57.9128892 231.919408,57.5182397 C231.919428,57.126364 231.605128,56.8075822 231.214879,56.8036635 L231.207762,56.8036635 Z M236.666088,56.9037041 C236.351663,56.9037041 236.096772,57.1596455 236.096772,57.4753651 C236.096772,57.7910847 236.351663,58.0470261 236.666088,58.0470261 C236.980514,58.0470261 237.235405,57.7910847 237.235405,57.4753651 C237.23543,57.1624151 236.984847,56.907616 236.673205,56.9037041 L236.666088,56.9037041 Z" id="Shape"></path>
            </g>
        </g>
    </g>
</svg>