<svg xmlns="http://www.w3.org/2000/svg" viewBox="0 0 1459 748"><defs><style>.cls-2{fill:#3b275b;}</style></defs><title>webbio-dark-dots</title><g id="Layer_2" data-name="Layer 2"><g id="Layer_1-2" data-name="Layer 1"><path class="cls-2" d="M196.17,270.95a.18.18,0,1,0,.18.18A.18.18,0,0,0,196.17,270.95Zm-69.34,83.84a.36.36,0,1,0,.35.36A.36.36,0,0,0,126.83,354.78Zm71.1-57.9h0a.27.27,0,1,0,.27.27h0A.27.27,0,0,0,197.93,296.89ZM182.47,437.23a.72.72,0,1,0,.71.72h0A.72.72,0,0,0,182.47,437.23Zm-3.53-51.88a.54.54,0,1,0,.53.54A.54.54,0,0,0,178.94,385.35Zm1.76,25.94a.63.63,0,1,0,.62.63A.63.63,0,0,0,180.7,411.29Zm20.76-62.53a.45.45,0,1,0,.44.45A.45.45,0,0,0,201.46,348.76Zm7.06,103.75a.81.81,0,1,0,.8.81A.81.81,0,0,0,208.52,452.51Zm-1.77-25.94a.72.72,0,1,0,.71.72A.72.72,0,0,0,206.76,426.58Zm11.93-192.22h0a.09.09,0,1,0,.09.09A.09.09,0,0,0,218.69,234.36ZM177.17,359.42h0a.45.45,0,0,0-.44.45h0a.44.44,0,1,0,.44-.45Zm43.28-99.12a.18.18,0,1,0,.18.18A.18.18,0,0,0,220.46,260.3ZM203.23,374.7h0a.54.54,0,1,0,.53.54A.54.54,0,0,0,203.23,374.7ZM205,400.64a.63.63,0,1,0,.62.63A.63.63,0,0,0,205,400.64Zm-5.29-77.81a.36.36,0,0,0-.35.36h0a.35.35,0,1,0,.35-.36Zm-52.11-30.57a.18.18,0,1,0,.18.18A.18.18,0,0,0,147.59,292.26Zm-1.76-25.94a.09.09,0,1,0,.09.09A.09.09,0,0,0,145.82,266.32Zm3.53,51.88h0a.27.27,0,1,0,.27.27h0A.27.27,0,0,0,149.35,318.19ZM128.6,380.72a.45.45,0,1,0,.44.45A.45.45,0,0,0,128.6,380.72Zm46.81-47.24a.36.36,0,0,0-.35.36h0a.35.35,0,1,0,.35-.36Zm-45,73.18a.54.54,0,0,0-.53.54h0a.53.53,0,1,0,1.06,0h0A.54.54,0,0,0,130.36,406.66Zm20.76-62.53a.36.36,0,1,0,.35.36A.36.36,0,0,0,151.12,344.13Zm1.77,25.94h0a.45.45,0,0,0-.44.45h0a.44.44,0,1,0,.89,0h0A.45.45,0,0,0,152.88,370.07Zm19-88.47a.18.18,0,1,0,.18.18h0A.18.18,0,0,0,171.88,281.6Zm1.77,25.94h0a.27.27,0,0,0-.27.27h0a.27.27,0,1,0,.27-.27Zm-3.53-51.88a.09.09,0,1,0,.09.09A.09.09,0,0,0,170.11,255.66Zm-13.7,166.28a.63.63,0,1,0,.62.63A.63.63,0,0,0,156.41,421.94ZM154.65,396h0a.54.54,0,1,0,.53.54A.54.54,0,0,0,154.65,396ZM194.4,245h0a.09.09,0,0,0,0,.18h0a.09.09,0,1,0,0-.18Zm66.23,238.07h0a1,1,0,0,0-1,1h0a1,1,0,1,0,1-1ZM270.8,264.93h0a.27.27,0,1,0,.27.27h0A.27.27,0,0,0,270.8,264.93ZM269,239a.18.18,0,0,0-.18.18h0a.18.18,0,1,0,.35,0A.18.18,0,0,0,269,239Zm-1.77-25.94a.09.09,0,1,0,.09.09A.09.09,0,0,0,267.27,213.05ZM255.34,405.27a.72.72,0,1,0,.71.72h0A.72.72,0,0,0,255.34,405.27Zm3.53,51.88a.91.91,0,1,0,.89.9A.9.9,0,0,0,258.87,457.15Zm-1.77-25.94h0a.81.81,0,0,0-.79.82h0a.8.8,0,1,0,1.59,0h0A.8.8,0,0,0,257.1,431.21Zm20.76-62.53a.63.63,0,1,0,.62.63A.63.63,0,0,0,277.86,368.68Zm-5.3-77.81a.36.36,0,0,0-.35.36h0a.35.35,0,1,0,.35-.36Zm-17.23,114.4h0Zm24.29-10.65a.72.72,0,0,0-.71.72h0a.71.71,0,1,0,1.42,0h0A.72.72,0,0,0,279.62,394.62Zm-3.53-51.88a.54.54,0,1,0,.53.54h0A.54.54,0,0,0,276.09,342.74Zm0,0h0Zm-1.76-25.94a.45.45,0,0,0-.44.45h0a.44.44,0,1,0,.89,0h0A.45.45,0,0,0,274.33,316.8ZM232.81,441.86h0a.81.81,0,1,0,.8.82h0A.81.81,0,0,0,232.81,441.86ZM231,415.92a.71.71,0,0,0-.71.72h0a.71.71,0,1,0,1.42,0h0A.72.72,0,0,0,231,415.92Zm3.53,51.88a.91.91,0,1,0,.89.9h0A.89.89,0,0,0,234.58,467.8ZM229.28,390h0a.63.63,0,1,0,.62.63A.63.63,0,0,0,229.28,390Zm-7.06-103.75h0a.27.27,0,1,0,.27.27A.27.27,0,0,0,222.22,286.23ZM224,312.17a.36.36,0,1,0,.35.36h0A.36.36,0,0,0,224,312.17ZM227.52,364a.54.54,0,1,0,.53.54h0A.54.54,0,0,0,227.52,364Zm-1.77-25.94h0a.45.45,0,0,0-.44.45h0a.44.44,0,1,0,.88,0h0A.45.45,0,0,0,225.75,338.11ZM243,223.71a.09.09,0,0,0-.09.09h0a.09.09,0,1,0,.09-.09ZM250,327.46a.45.45,0,0,0-.44.45h0a.44.44,0,1,0,.44-.45Zm1.77,25.94a.54.54,0,0,0-.53.54h0a.53.53,0,1,0,.53-.55Zm1.76,25.94a.63.63,0,1,0,.62.63A.63.63,0,0,0,253.57,379.33Zm-5.3-77.81a.36.36,0,0,0-.35.36h0a.35.35,0,1,0,.71,0h0A.36.36,0,0,0,248.28,301.52Zm-3.53-51.88a.18.18,0,0,0-.18.18h0a.18.18,0,1,0,.35,0A.18.18,0,0,0,244.75,249.64Zm1.77,25.94a.27.27,0,1,0,.26.27A.27.27,0,0,0,246.51,275.58Zm289.7-153.41h0A.18.18,0,1,0,536,122,.18.18,0,0,0,536.22,122.17Zm-48.58,21.31h0Zm0,0a.18.18,0,0,0,0-.36h0a.18.18,0,0,0,0,.36Zm-1.76-26.12a.09.09,0,0,0,0-.18h0a.09.09,0,0,0,0,.18Zm3.53,52.24a.27.27,0,1,0-.27-.27h0A.27.27,0,0,0,489.4,169.6Zm1.77,26.12a.36.36,0,1,0-.35-.36A.36.36,0,0,0,491.17,195.72ZM494.7,248h0a.54.54,0,1,0-.53-.54h0A.54.54,0,0,0,494.7,248Zm-1.76-26.12a.45.45,0,1,0-.44-.45h0A.45.45,0,0,0,492.93,221.84ZM461.58,128a.09.09,0,0,0,0-.18h0a.09.09,0,0,0,0,.18Zm48.58-21.3a.09.09,0,1,0-.09-.09A.09.09,0,0,0,510.16,106.71ZM468.64,232.49h0a.45.45,0,0,0,0-.91h0a.45.45,0,0,0-.44.45h0A.45.45,0,0,0,468.64,232.49ZM440.82,190.9h0a.27.27,0,0,0,.27-.27h0a.27.27,0,0,0-.27-.27h0a.27.27,0,0,0,0,.54ZM442.59,217h0a.36.36,0,1,0-.35-.36h0A.36.36,0,0,0,442.59,217Zm24.29-10.65a.36.36,0,0,0,.35-.36h0a.35.35,0,1,0-.71,0h0A.36.36,0,0,0,466.88,206.37Zm-1.77-26.12a.27.27,0,0,0,.27-.27h0a.27.27,0,0,0-.27-.27h0a.27.27,0,0,0,0,.54Zm-1.76-26.12h0a.18.18,0,1,0-.18-.18A.18.18,0,0,0,463.35,154.13ZM125.06,328.85h0a.27.27,0,1,0,.27.27A.27.27,0,0,0,125.06,328.85Zm156.32,91.71h0a.81.81,0,1,0,.8.82h0A.81.81,0,0,0,281.39,420.56ZM511.93,132.83a.18.18,0,1,0-.18-.18h0A.18.18,0,0,0,511.93,132.83Zm27.82,41.58h0a.36.36,0,1,0-.35-.36h0A.36.36,0,0,0,539.75,174.41Zm3.53,52.24a.54.54,0,1,0-.53-.54h0A.54.54,0,0,0,543.28,226.65ZM545,252.77a.63.63,0,0,0,.62-.63h0a.63.63,0,0,0-.62-.63h0a.63.63,0,0,0,0,1.27ZM538,148.29a.27.27,0,1,0-.27-.27A.27.27,0,0,0,538,148.29Zm-22.52,36.77a.36.36,0,0,0,.35-.36h0a.35.35,0,1,0-.71,0h0A.36.36,0,0,0,515.46,185.06Zm19-89h0a.09.09,0,0,0,.09-.09.09.09,0,0,0-.09-.09.09.09,0,0,0-.09.09A.09.09,0,0,0,534.45,96.05Zm-20.76,62.89a.27.27,0,0,0,.27-.27h0a.27.27,0,0,0-.27-.27h0a.27.27,0,0,0,0,.54Zm3.53,52.24a.45.45,0,1,0-.44-.45h0A.45.45,0,0,0,517.22,211.18ZM519,237.3a.54.54,0,1,0-.53-.54A.54.54,0,0,0,519,237.3Zm1.76,26.12a.63.63,0,0,0,.62-.63h0a.63.63,0,0,0-.62-.63h0a.63.63,0,0,0,0,1.27Zm20.76-62.89h0a.45.45,0,0,0,.44-.45h0a.44.44,0,1,0-.89,0h0A.45.45,0,0,0,541.51,200.53ZM78.25,376.09a.36.36,0,1,0,.35.36A.36.36,0,0,0,78.25,376.09Zm19-88.46h0a.09.09,0,0,0-.09.09h0a.09.09,0,0,0,.09.09.09.09,0,0,0,.09-.09A.09.09,0,0,0,97.25,287.62ZM76.49,350.15h0a.27.27,0,1,0,.27.27h0A.27.27,0,0,0,76.49,350.15ZM73,298.28a.09.09,0,1,0,.09.09A.09.09,0,0,0,73,298.28Zm0,0h0Zm1.76,25.94a.18.18,0,1,0,.18.18A.18.18,0,0,0,74.72,324.21ZM99,313.56a.18.18,0,1,0,.18.18A.18.18,0,0,0,99,313.56Zm340-148.78a.18.18,0,1,0-.18-.18A.18.18,0,0,0,439.06,164.78ZM121.53,277a.09.09,0,1,0,.09.09A.09.09,0,0,0,121.53,277Zm1.77,25.94a.18.18,0,0,0,0,.36.18.18,0,0,0,0-.36ZM52.2,360.8h0a.27.27,0,1,0,.27.27A.27.27,0,0,0,52.2,360.8ZM475.7,335.33h0a.8.8,0,0,0-.79.82h0a.8.8,0,1,0,1.59,0h0A.81.81,0,0,0,475.7,335.33Zm-373.16,30.1h0Zm-1.76-25.94a.27.27,0,1,0,.27.27A.27.27,0,0,0,100.78,339.5Zm3.53,51.88h0a.45.45,0,0,0-.44.45h0a.44.44,0,1,0,.44-.45ZM50.43,334.87a.18.18,0,0,0-.18.18.18.18,0,1,0,.35,0h0A.18.18,0,0,0,50.43,334.87ZM414.77,175.44a.18.18,0,0,0,.18-.18h0a.18.18,0,1,0-.35,0A.18.18,0,0,0,414.77,175.44ZM388.71,160a.09.09,0,0,0,.09-.09h0a.09.09,0,0,0-.09-.09.09.09,0,0,0,0,.18Zm1.77,26.12a.18.18,0,0,0,0-.36.18.18,0,0,0-.18.18A.18.18,0,0,0,390.48,186.09Zm46.81-47.43h0a.09.09,0,0,0,.09-.09h0a.09.09,0,0,0-.09-.09.09.09,0,1,0,0,.18Zm-20.76,62.89a.27.27,0,1,0-.27-.27A.27.27,0,0,0,416.53,201.56ZM413,149.32a.09.09,0,1,0-.09-.09A.09.09,0,0,0,413,149.32ZM26.14,345.52h0a.18.18,0,1,0,.18.18A.18.18,0,0,0,26.14,345.52Zm22.52-36.59a.09.09,0,1,0,.09.09A.09.09,0,0,0,48.67,308.93ZM24.38,319.58a.09.09,0,1,0,.09.09A.09.09,0,0,0,24.38,319.58ZM.09,330.23a.09.09,0,0,0-.09.09.09.09,0,0,0,.09.09.09.09,0,0,0,0-.18Zm0,0h0ZM364.43,170.62a.09.09,0,1,0-.09-.09A.09.09,0,0,0,364.43,170.62Zm81.69,97.55h0a.54.54,0,1,0,.53.54A.54.54,0,0,0,446.12,268.17ZM417,574.79h0Zm-.35-24.49a1.42,1.42,0,1,0-1.42,1.45A1.43,1.43,0,0,0,416.61,550.3Zm.35,24.49a1.54,1.54,0,1,0,1.51,1.54A1.52,1.52,0,0,0,417,574.79Zm-1.77-25.94h0Zm-2.29-50.61a1.24,1.24,0,1,0-1.24,1.27A1.25,1.25,0,0,0,412.9,498.25ZM418.3,227a.36.36,0,0,0-.35.36h0a.35.35,0,1,0,.71,0h0A.36.36,0,0,0,418.3,227Zm-3.54,297.33a1.35,1.35,0,0,0-1.33-1.36h0a1.36,1.36,0,1,0,1.33,1.36Zm12.37-167.64h0a.82.82,0,1,0,.8.82h0A.81.81,0,0,0,427.13,356.64Zm-1.77-25.94a.71.71,0,0,0-.71.72h0a.71.71,0,1,0,1.42,0h0A.72.72,0,0,0,425.36,330.7ZM411,472.22a1.15,1.15,0,1,0-1.15,1.18A1.16,1.16,0,0,0,411,472.22ZM425.36,330.7h0Zm-3.53-51.88a.54.54,0,1,0,.53.54h0A.54.54,0,0,0,421.83,278.82Zm1.77,25.94a.63.63,0,1,0,.62.63A.63.63,0,0,0,423.59,304.76Zm-3.53-51.88h0a.45.45,0,0,0-.44.45h0a.44.44,0,1,0,.89,0h0A.45.45,0,0,0,420.07,252.89ZM394,237.6a.36.36,0,1,0,.35.36A.36.36,0,0,0,394,237.6Zm-1.77-25.94a.27.27,0,0,0-.27.27h0a.27.27,0,1,0,.27-.27Zm37.53,171.81a.89.89,0,1,0-.89.91.9.9,0,0,0,.89-.91Zm-32.23-94h0a.54.54,0,1,0,.53.54A.54.54,0,0,0,397.54,289.48Zm-1.77-25.94a.45.45,0,0,0-.44.45h0a.44.44,0,1,0,.44-.45ZM388.61,508.9a1.24,1.24,0,1,0-1.24,1.27A1.25,1.25,0,0,0,388.61,508.9Zm1.85,26a1.34,1.34,0,0,0-1.33-1.36h0a1.36,1.36,0,1,0,1.33,1.36Zm.44,24.58h0a1.45,1.45,0,1,0,1.42,1.45A1.43,1.43,0,0,0,390.9,559.51Zm8.4-244.09a.63.63,0,1,0,.62.63A.63.63,0,0,0,399.31,315.42Zm5.3,77.81h0a.91.91,0,1,0,.89.9A.9.9,0,0,0,404.6,393.23Zm1.76,25.94h0a1,1,0,0,0-1,1h0a1,1,0,1,0,1-1Zm2.83,27a1.06,1.06,0,1,0-1.06,1.09A1.08,1.08,0,0,0,409.19,446.19Zm-22.44,36.68a1.15,1.15,0,1,0-1.15,1.18A1.16,1.16,0,0,0,386.76,482.87Zm14.31-141.52a.72.72,0,1,0,.71.72A.72.72,0,0,0,401.07,341.35Zm1.76,25.94h0Zm0,0a.81.81,0,1,0,.8.81h0A.81.81,0,0,0,402.84,367.29ZM462,501.61h0Zm-.52-24.67a1.24,1.24,0,1,0-1.24,1.27A1.25,1.25,0,0,0,461.48,476.94Zm1.85,26a1.33,1.33,0,1,0-1.33,1.36A1.34,1.34,0,0,0,463.33,503Zm1.85,26a1.43,1.43,0,0,0-1.42-1.45h0a1.45,1.45,0,1,0,1.42,1.45Zm-9.27-130.14a1,1,0,0,0-1-1h0a1,1,0,0,0-1,1h0a1,1,0,1,0,1.95,0Zm3.71,52.06a1.16,1.16,0,0,0-1.15-1.18h0a1.18,1.18,0,1,0,1.15,1.18Zm-6.45-79a.91.91,0,1,0,.89.91A.9.9,0,0,0,453.18,371.92Zm4.59,53a1.06,1.06,0,1,0-1.06,1.09A1.08,1.08,0,0,0,457.77,424.89Zm14.4-141.43h0a.63.63,0,1,0,.62.63h0A.63.63,0,0,0,472.17,283.46Zm1.76,25.94a.72.72,0,1,0,.71.72h0A.71.71,0,0,0,473.94,309.4Zm-3.53-51.88a.54.54,0,0,0-.53.54h0a.53.53,0,1,0,1.06,0h0A.54.54,0,0,0,470.41,257.52ZM468.9,581.06a1.6,1.6,0,1,0-1.59,1.63A1.61,1.61,0,0,0,468.9,581.06Zm.17,24.31a1.72,1.72,0,1,0,1.68,1.72A1.7,1.7,0,0,0,469.06,605.36ZM467,555a1.52,1.52,0,0,0-1.51-1.54h0A1.54,1.54,0,1,0,467,555ZM440.9,539.65a1.42,1.42,0,1,0-1.42,1.45A1.43,1.43,0,0,0,440.9,539.65ZM451.41,346a.81.81,0,1,0,.8.81h0A.81.81,0,0,0,451.41,346ZM437.19,487.59a1.24,1.24,0,1,0-1.24,1.27A1.25,1.25,0,0,0,437.19,487.59Zm-6.54-79.08a1,1,0,1,0,1,1A1,1,0,0,0,430.66,408.51ZM439,513.62a1.33,1.33,0,1,0-1.33,1.36A1.34,1.34,0,0,0,439,513.62Zm-3.71-52.06a1.15,1.15,0,1,0-1.15,1.18A1.16,1.16,0,0,0,435.34,461.57Zm-1.85-26a1.06,1.06,0,1,0-1.06,1.09A1.07,1.07,0,0,0,433.48,435.54Zm9.27,130.14a1.51,1.51,0,1,0-1.51,1.54A1.52,1.52,0,0,0,442.75,565.68Zm5.13-271.57h0a.63.63,0,1,0,.62.63h0A.63.63,0,0,0,447.88,294.11ZM449.65,320a.72.72,0,1,0,.71.72h0A.72.72,0,0,0,449.65,320ZM451.41,346h0Zm-7.06-103.75h0a.45.45,0,0,0-.44.45h0a.44.44,0,1,0,.44-.46ZM443,590.08a1.63,1.63,0,1,0,1.59,1.63A1.61,1.61,0,0,0,443,590.08Zm103.8-311.19a.72.72,0,0,0,.71-.72h0a.71.71,0,1,0-1.41,0h0A.72.72,0,0,0,546.81,278.89Zm-182,265.34h0Zm-43.7-274.66a.36.36,0,1,0,.36.36A.36.36,0,0,0,321.14,269.56Zm1.77,25.94a.45.45,0,0,0-.44.45h0a.44.44,0,1,0,.89,0h0A.45.45,0,0,0,322.91,295.5Zm-3.53-51.88a.27.27,0,0,0-.27.27h0a.27.27,0,1,0,.27-.27Zm-1.76-25.94h0a.18.18,0,1,0,.18.18h0A.18.18,0,0,0,317.61,217.69Zm-1.77-25.94h0Zm0,0a.09.09,0,0,0-.09.09h0a.09.09,0,1,0,.18,0h0A.09.09,0,0,0,315.85,191.75Zm8.83,129.69a.54.54,0,1,0,.53.54A.54.54,0,0,0,324.67,321.44ZM330,399.25h0a.82.82,0,1,0,.8.82h0A.81.81,0,0,0,330,399.25Zm4.5,52.87a1,1,0,0,0-1-1h0a1,1,0,0,0-1,1h0a1,1,0,1,0,1.95,0Zm1.85,26a1.06,1.06,0,1,0-1.06,1.09A1.07,1.07,0,0,0,336.33,478.15Zm-4.59-53a.9.9,0,0,0-.89.91h0a.89.89,0,1,0,.89-.91Zm-3.53-51.88h0a.72.72,0,1,0,.71.72h0A.72.72,0,0,0,328.2,373.31ZM312.74,513.65a1.18,1.18,0,1,0,1.15,1.18A1.16,1.16,0,0,0,312.74,513.65Zm13.7-166.28a.63.63,0,1,0,.62.63A.63.63,0,0,0,326.44,347.38Zm58.47,109.47a1.06,1.06,0,1,0-1.06,1.09A1.07,1.07,0,0,0,384.91,456.84ZM293.32,228.34a.18.18,0,1,0,.18.18A.18.18,0,0,0,293.32,228.34ZM312,488.8a1.07,1.07,0,0,0-1.06-1.09h0A1.09,1.09,0,1,0,312,488.8ZM296.85,280.21a.36.36,0,1,0,.35.36A.36.36,0,0,0,296.85,280.21ZM286.68,498.37a1.09,1.09,0,1,0,1.06,1.09A1.07,1.07,0,0,0,286.68,498.37Zm-1.76-25.94a1,1,0,0,0-1,1h0a1,1,0,1,0,1-1Zm6.64-270a.09.09,0,0,0,0,.18.09.09,0,0,0,.09-.09A.09.09,0,0,0,291.56,202.4Zm7.06,103.75h0a.45.45,0,0,0-.44.45h0a.44.44,0,1,0,.89,0h0A.45.45,0,0,0,298.62,306.15Zm-3.53-51.88a.27.27,0,1,0,.27.27A.27.27,0,0,0,295.09,254.28Zm12.36,181.57a.91.91,0,1,0,.89.9A.9.9,0,0,0,307.44,435.84Zm1.77,25.94a1,1,0,0,0-1,1h0a1,1,0,1,0,1-1Zm-3.53-51.87h0a.82.82,0,1,0,.8.82h0A.81.81,0,0,0,305.68,409.9Zm-5.3-77.81a.54.54,0,1,0,.53.54A.54.54,0,0,0,300.38,332.09ZM302.15,358h0a.63.63,0,1,0,.62.63h0A.63.63,0,0,0,302.15,358ZM303.91,384a.72.72,0,1,0,.71.72h0A.71.71,0,0,0,303.91,384Zm34.27,120.21a1.15,1.15,0,1,0-1.15,1.18A1.16,1.16,0,0,0,338.18,504.18ZM368,222.32h0a.27.27,0,1,0,.27.27h0A.27.27,0,0,0,368,222.32Zm1.77,25.94a.36.36,0,1,0,.35.36A.36.36,0,0,0,369.72,248.26Zm-3.53-51.88a.18.18,0,0,0-.18.18.18.18,0,1,0,.18-.18Zm-27.4,332.56a1.27,1.27,0,1,0,1.24,1.27A1.25,1.25,0,0,0,338.79,528.94Zm26.05,15.28a1.36,1.36,0,1,0,1.33,1.36A1.34,1.34,0,0,0,364.85,544.22Zm-.53-24.67a1.24,1.24,0,1,0-1.24,1.27A1.25,1.25,0,0,0,364.32,519.55Zm7.16-245.36a.45.45,0,1,0,.44.45h0A.45.45,0,0,0,371.49,274.19ZM375,326.07a.63.63,0,1,0,.62.63A.63.63,0,0,0,375,326.07Zm5.3,77.81a.91.91,0,1,0,.89.9A.9.9,0,0,0,380.31,403.88Zm-1.77-25.94a.82.82,0,1,0,.8.82h0A.81.81,0,0,0,378.55,377.94Zm4.5,52.87a1,1,0,0,0-1-1h0a1,1,0,0,0-1,1h0a1,1,0,1,0,1.95,0Zm-20.58,62.71a1.15,1.15,0,1,0-1.15,1.18A1.16,1.16,0,0,0,362.47,493.52ZM376.78,352a.73.73,0,1,0,.71.72A.72.72,0,0,0,376.78,352Zm-3.53-51.88a.54.54,0,0,0-.53.54h0a.53.53,0,1,0,.53-.54Zm-90.1,146.36a.9.9,0,0,0-.89.91h0a.89.89,0,1,0,.89-.91ZM343.67,233a.27.27,0,0,0-.27.27h0a.27.27,0,1,0,.27-.27Zm1.77,25.94a.36.36,0,1,0,.35.36A.36.36,0,0,0,345.43,258.91Zm1.76,25.94h0a.45.45,0,0,0-.44.45h0a.44.44,0,1,0,.89,0h0A.45.45,0,0,0,347.2,284.85ZM340.14,181.1a.09.09,0,1,0,.09.09A.09.09,0,0,0,340.14,181.1ZM341.9,207a.18.18,0,1,0,.18.18A.18.18,0,0,0,341.9,207ZM349,310.78a.54.54,0,1,0,.53.54h0A.54.54,0,0,0,349,310.78Zm5.29,77.81a.82.82,0,1,0,.8.82h0A.81.81,0,0,0,354.26,388.6Zm4.5,52.87a1,1,0,0,0-1-1h0a1,1,0,1,0,1,1Zm-8-104.75a.63.63,0,1,0,.62.63A.63.63,0,0,0,350.73,336.72Zm5.3,77.81h0a.91.91,0,1,0,.89.9A.89.89,0,0,0,356,414.54Zm3.53,51.87h0Zm-7.06-103.75a.72.72,0,1,0,.71.72A.72.72,0,0,0,352.49,362.66Zm8.12,104.84a1.06,1.06,0,1,0-1.06,1.09A1.07,1.07,0,0,0,360.62,467.5ZM102.54,365.44a.36.36,0,0,0-.35.36h0a.35.35,0,1,0,.71,0h0A.36.36,0,0,0,102.54,365.44ZM834.75,98.82h0a.54.54,0,0,0,.53-.54h0a.53.53,0,1,0-.53.55Zm-3.53-52.24a.36.36,0,1,0-.35-.36h0A.36.36,0,0,0,831.22,46.58ZM833,72.7a.45.45,0,0,0,.44-.45h0a.45.45,0,0,0-.44-.45h0a.45.45,0,0,0,0,.91Zm3.53,52.24a.63.63,0,0,0,.62-.63h0a.63.63,0,0,0-.62-.63h0a.63.63,0,0,0,0,1.27ZM840,177.17h0a.81.81,0,0,0,0-1.63h0a.81.81,0,0,0,0,1.63Zm1.76,26.12a.89.89,0,0,0,.89-.91h0a.89.89,0,1,0-1.77,0h0A.89.89,0,0,0,841.81,203.29Zm-3.53-52.24h0Zm0,0a.72.72,0,1,0-.71-.72A.72.72,0,0,0,838.28,151.05ZM821,266.18A1.09,1.09,0,1,0,820,265.1,1.08,1.08,0,0,0,821,266.18Zm-1.77-26.12a1,1,0,0,0,0-2h0a1,1,0,0,0,0,2ZM825,343.18a1.34,1.34,0,0,0,1.33,1.36h0a1.36,1.36,0,1,0-1.33-1.36Zm-7.5-129.23h0a.91.91,0,1,0-.89-.91A.9.9,0,0,0,817.52,213.95Zm5.82,103.21a1.24,1.24,0,1,0,1.24-1.27A1.25,1.25,0,0,0,823.34,317.15Zm-1.68-26a1.16,1.16,0,0,0,1.15,1.18h0a1.18,1.18,0,1,0-1.15-1.18Zm21.91-61.71a1,1,0,0,0,1-1h0a1,1,0,0,0-1-1h0a1,1,0,0,0,0,2Zm20.76-62.89a.81.81,0,0,0,.8-.82h0a.8.8,0,0,0-.8-.81h0a.81.81,0,0,0,0,1.63Zm-3.53-52.24a.63.63,0,0,0,0-1.27h0a.63.63,0,0,0,0,1.27Zm-45,73.54a.81.81,0,1,0-.8-.82A.81.81,0,0,0,815.75,187.83Zm46.81-47.42h0a.72.72,0,0,0,.71-.72h0a.71.71,0,1,0-.71.73Zm7.67,129.42a1.16,1.16,0,0,0,1.15,1.18h0a1.18,1.18,0,1,0-1.15-1.18Zm1.68,26a1.24,1.24,0,1,0,1.24-1.27A1.25,1.25,0,0,0,871.92,295.85Zm-2.29-51h0a1.09,1.09,0,1,0-1.06-1.09A1.08,1.08,0,0,0,869.63,244.88Zm-3.53-52.24h0a.9.9,0,0,0,.89-.91h0a.89.89,0,1,0-.89.91ZM847.63,306.5a1.24,1.24,0,1,0,1.24-1.27A1.25,1.25,0,0,0,847.63,306.5ZM859,88.16a.54.54,0,1,0-.53-.54h0A.54.54,0,0,0,859,88.16Zm-13.7,167.37a1.09,1.09,0,1,0-1.06-1.09A1.08,1.08,0,0,0,845.34,255.53Zm.61,24.94a1.15,1.15,0,1,0,1.15-1.18A1.16,1.16,0,0,0,846,280.47Zm3.35,52.06a1.33,1.33,0,1,0,1.33-1.36A1.34,1.34,0,0,0,849.3,332.53Zm8-270.48a.45.45,0,0,0,0-.91h0a.45.45,0,0,0-.44.45h0A.45.45,0,0,0,857.27,62Zm9.62,155.72a1,1,0,1,0,1.95,0h0a1,1,0,0,0-1-1h0a1,1,0,0,0-1,1Zm-86-176h0Zm0,0a.27.27,0,1,0-.27-.27h0A.27.27,0,0,0,780.87,41.77ZM814,161.71a.72.72,0,1,0-.71-.72A.72.72,0,0,0,814,161.71Zm-27.82-41.58a.54.54,0,1,0-.53-.54A.54.54,0,0,0,786.17,120.12Zm1.76,26.12a.63.63,0,0,0,.62-.63h0a.63.63,0,0,0-.62-.63h0a.63.63,0,0,0,0,1.27ZM784.4,94a.45.45,0,0,0,.44-.45h0a.45.45,0,0,0-.44-.45h0a.45.45,0,0,0-.44.45h0A.45.45,0,0,0,784.4,94Zm-5.3-78.36a.18.18,0,1,0-.18-.18A.18.18,0,0,0,779.11,15.65ZM789.7,172.36a.72.72,0,0,0,.71-.72h0a.71.71,0,1,0-.71.73Zm-19,89a1,1,0,0,0,1-1h0a1,1,0,1,0-1,1Zm-1.76-26.12h0Zm7.5,129.23a1.33,1.33,0,1,0,1.33-1.36A1.34,1.34,0,0,0,776.44,364.49Zm-4-77h0a1.09,1.09,0,1,0-1.06-1.09A1.07,1.07,0,0,0,772.47,287.49Zm.62,24.94a1.15,1.15,0,1,0,1.15-1.18A1.16,1.16,0,0,0,773.08,312.43Zm1.67,26a1.24,1.24,0,1,0,1.24-1.27A1.25,1.25,0,0,0,774.76,338.46Zm7.88-270.57a.36.36,0,0,0,.35-.36h0a.35.35,0,1,0-.71,0h0A.36.36,0,0,0,782.64,67.89Zm24.29-10.65a.36.36,0,1,0-.35-.36h0A.36.36,0,0,0,806.93,57.23Zm-1.77-26.12h0Zm0,0a.27.27,0,1,0-.27-.27A.27.27,0,0,0,805.16,31.11Zm3.53,52.24a.45.45,0,0,0,.44-.45h0a.45.45,0,0,0-.44-.45h0a.45.45,0,0,0,0,.91Zm1.76,26.12h0a.54.54,0,1,0-.53-.54A.54.54,0,0,0,810.46,109.47Zm1.77,26.12a.63.63,0,0,0,0-1.27h0a.63.63,0,0,0,0,1.27Zm-19,89a.9.9,0,0,0,.89-.91h0a.89.89,0,1,0-.89.91Zm7.5,129.23a1.33,1.33,0,1,0,1.33-1.36A1.34,1.34,0,0,0,800.72,353.83Zm-4-77a1.09,1.09,0,1,0-1.06-1.09A1.07,1.07,0,0,0,796.76,276.84Zm-5.29-78.36a.81.81,0,0,0,.8-.82h0a.81.81,0,0,0-.8-.81h0a.82.82,0,0,0,0,1.63ZM794,249.72a1,1,0,1,0,1-1h0a1,1,0,0,0-1,1Zm5,78.09a1.24,1.24,0,1,0,1.24-1.27A1.25,1.25,0,0,0,799,327.81Zm-1.68-26a1.15,1.15,0,1,0,1.15-1.18A1.17,1.17,0,0,0,797.37,301.78ZM963.25,150a.9.9,0,0,0,.89-.9h0a.89.89,0,1,0-.89.91Zm28.43,66.53a1.15,1.15,0,1,0,1.15-1.18A1.16,1.16,0,0,0,991.69,216.56Zm-.61-24.94h0a1.09,1.09,0,1,0-1.06-1.09A1.07,1.07,0,0,0,991.07,191.61Zm-3.53-52.24a.9.9,0,0,0,.89-.91h0a.89.89,0,1,0-.89.91Zm.79,25.12a1,1,0,1,0,1.95,0h0a1,1,0,0,0-1-1h0a1,1,0,0,0-1,1Zm5,78.08a1.24,1.24,0,1,0,1.24-1.27A1.25,1.25,0,0,0,993.36,242.58Zm20.23-87.74a1,1,0,0,0,1-1h0a1,1,0,1,0-1,1ZM995,268.61a1.35,1.35,0,0,0,1.33,1.36h0a1.36,1.36,0,1,0-1.33-1.36Zm-23,12h0Zm-5.3-78.36a1.09,1.09,0,1,0-1.06-1.09A1.07,1.07,0,0,0,966.78,202.27ZM965,176.15a1,1,0,1,0-1-1A1,1,0,0,0,965,176.15Zm2.38,51.06a1.15,1.15,0,1,0,1.15-1.18A1.16,1.16,0,0,0,967.4,227.21Zm3.35,52.06a1.33,1.33,0,1,0,1.33-1.36A1.34,1.34,0,0,0,970.75,279.26Zm-97.16,42.61a1.34,1.34,0,0,0,1.33,1.36h0a1.36,1.36,0,1,0-1.33-1.36ZM1015.36,181a1.09,1.09,0,1,0-1.06-1.09A1.07,1.07,0,0,0,1015.36,181Zm4,77a1.34,1.34,0,0,0,1.33,1.36h0a1.36,1.36,0,1,0-1.33-1.36Zm48.58-21.3a1.33,1.33,0,1,0,1.33-1.36A1.34,1.34,0,0,0,1067.91,236.66ZM1016,205.9a1.16,1.16,0,0,0,1.15,1.18h0a1.18,1.18,0,1,0-1.15-1.18Zm50.25,4.73a1.24,1.24,0,1,0,1.24-1.27A1.25,1.25,0,0,0,1066.23,210.63Zm25.53-9.39a1.27,1.27,0,1,0-1.24-1.27A1.25,1.25,0,0,0,1091.76,201.24Zm26.05,15.46a1.36,1.36,0,1,0-1.33-1.36A1.34,1.34,0,0,0,1117.81,216.71ZM1092.2,226a1.33,1.33,0,1,0,1.33-1.36A1.34,1.34,0,0,0,1092.2,226Zm-26.49-40.23h0a1.18,1.18,0,1,0-1.15-1.18A1.17,1.17,0,0,0,1065.71,185.78ZM768.94,235.25a.91.91,0,1,0-.88-.91h0A.9.9,0,0,0,768.94,235.25Zm270.71-64.94a1.09,1.09,0,1,0-1.06-1.09A1.07,1.07,0,0,0,1039.65,170.31Zm4,77a1.33,1.33,0,1,0,1.33-1.36A1.34,1.34,0,0,0,1043.62,247.31Zm-26-15.38a1.24,1.24,0,1,0,1.24-1.27A1.25,1.25,0,0,0,1017.65,231.93Zm22.61-36.68a1.15,1.15,0,1,0,1.15-1.18A1.16,1.16,0,0,0,1040.26,195.25Zm1.68,26a1.24,1.24,0,1,0,1.24-1.27A1.25,1.25,0,0,0,1041.94,221.28Zm-72.87,32a1.24,1.24,0,1,0,1.24-1.27A1.25,1.25,0,0,0,969.07,253.24Zm-71.19,58a1.33,1.33,0,1,0,1.33-1.36A1.34,1.34,0,0,0,897.88,311.22Zm-4-77h0a1.09,1.09,0,1,0-1.06-1.09A1.08,1.08,0,0,0,893.92,234.22Zm.61,24.94a1.16,1.16,0,0,0,1.15,1.18h0a1.18,1.18,0,1,0-1.15-1.18Zm1.67,26a1.24,1.24,0,1,0,1.24-1.27A1.25,1.25,0,0,0,896.2,285.2ZM909.38,93a.63.63,0,0,0,.62-.63h0a.63.63,0,0,0-.62-.63h0a.63.63,0,0,0,0,1.27Zm3.53,52.23a.81.81,0,0,0,.8-.81h0a.81.81,0,0,0-.8-.81h0a.81.81,0,0,0,0,1.63Zm-1.77-26.12a.72.72,0,0,0,.71-.72h0a.71.71,0,1,0-.71.73ZM890.38,182a.9.9,0,0,0,.89-.91h0a.89.89,0,1,0-.89.91Zm-5.29-78.36a.63.63,0,0,0,.62-.63h0a.62.62,0,1,0-.62.63Zm76.4,20.28a.81.81,0,1,0-.8-.81A.81.81,0,0,0,961.49,123.91Zm-78.16-46.4a.54.54,0,1,0-.53-.54A.54.54,0,0,0,883.33,77.51Zm8.82,130.59h0a1,1,0,0,0,1-1h0a1,1,0,1,0-1,1Zm22.53-36.77a.9.9,0,0,0,.89-.9h0a.89.89,0,1,0-.89.91Zm-26.05-15.47a.81.81,0,0,0,0-1.63h0a.81.81,0,0,0,0,1.63Zm-1.77-26.12a.72.72,0,0,0,.71-.72h0a.71.71,0,1,0-1.42,0h0A.71.71,0,0,0,886.86,129.75Zm55.64,83.17a1.09,1.09,0,1,0-1.06-1.09A1.08,1.08,0,0,0,942.49,212.92Zm-1.76-26.12a1,1,0,0,0,0-2h0a1,1,0,0,0,0,2Zm2.38,51.06a1.15,1.15,0,1,0,1.15-1.18A1.17,1.17,0,0,0,943.11,237.86ZM939,160.68a.89.89,0,0,0,.89-.9h0a.89.89,0,1,0-.89.9Zm7.5,129.24a1.34,1.34,0,0,0,1.33,1.36h0a1.36,1.36,0,1,0-1.33-1.36Zm-1.68-26a1.24,1.24,0,1,0,1.24-1.27A1.25,1.25,0,0,0,944.78,263.89Zm-22.61,36.68a1.33,1.33,0,1,0,1.33-1.36A1.34,1.34,0,0,0,922.17,300.57Zm15-166h0a.81.81,0,0,0,0-1.63h0a.81.81,0,0,0-.8.81h0A.81.81,0,0,0,937.2,134.57ZM918.82,248.51a1.15,1.15,0,1,0,1.15-1.18A1.16,1.16,0,0,0,918.82,248.51Zm-.62-24.94h0a1.09,1.09,0,1,0-1.06-1.09A1.07,1.07,0,0,0,918.2,223.57Zm2.29,51a1.24,1.24,0,1,0,1.24-1.27A1.25,1.25,0,0,0,920.49,274.54Zm14.94-166.1a.72.72,0,0,0,.71-.72h0a.71.71,0,1,0-.71.73Zm-20,88a1,1,0,1,0,1-1h0a1,1,0,0,0-1,1Zm-230-86a.36.36,0,1,0-.35-.36h0A.36.36,0,0,0,685.48,110.5Zm-46.81,47.43a.45.45,0,1,0-.44-.45h0A.45.45,0,0,0,638.67,157.92Zm-5.3-78.36h0a.18.18,0,1,0-.18-.18A.18.18,0,0,0,633.37,79.56Zm1.77,26.12a.27.27,0,0,0,.27-.27h0a.27.27,0,1,0-.27.27ZM617.91,220.81a.63.63,0,1,0-.62-.63A.63.63,0,0,0,617.91,220.81Zm27.82,41.59a.81.81,0,0,0,.8-.81h0a.81.81,0,0,0-.8-.81h0a.81.81,0,0,0,0,1.63Zm-3.53-52.24a.63.63,0,1,0-.62-.63A.63.63,0,0,0,642.2,210.16ZM640.43,184a.54.54,0,1,0-.53-.54A.54.54,0,0,0,640.43,184ZM644,236.28a.72.72,0,0,0,.71-.72h0a.71.71,0,1,0-1.42,0h0A.71.71,0,0,0,644,236.28ZM621.44,273a.81.81,0,0,0,.8-.82h0a.8.8,0,1,0-.8.82Zm10.17-219.6a.09.09,0,0,0,.09-.09h0a.09.09,0,1,0-.09.09Zm-8.4,245.72a.91.91,0,1,0-.89-.91A.9.9,0,0,0,623.2,299.17Zm-3.53-52.24a.72.72,0,1,0-.71-.73A.72.72,0,0,0,619.67,246.93ZM625,325.29a1,1,0,0,0,1-1h0a1,1,0,0,0-1-1h0a1,1,0,0,0,0,2Zm1.77,26.12a1.09,1.09,0,1,0-1.06-1.09A1.07,1.07,0,0,0,626.73,351.41ZM636.9,131.8h0a.36.36,0,0,0,.35-.36h0a.36.36,0,1,0-.35.36Zm29.58,67.71a.63.63,0,0,0,.62-.63h0a.63.63,0,0,0-.62-.63h0a.63.63,0,0,0,0,1.27Zm-1.77-26.12a.54.54,0,1,0-.53-.54h0A.54.54,0,0,0,664.72,173.39Zm3.53,52.24a.72.72,0,0,0,.71-.72h0a.71.71,0,1,0-.71.73Zm3.53,52.24a.9.9,0,0,0,.89-.9h0a.9.9,0,0,0-.89-.9h0a.91.91,0,0,0,0,1.81Zm.79,25.12a1,1,0,1,0,1-1,1,1,0,0,0-1,1ZM663,147.27h0a.45.45,0,0,0,.44-.45h0a.45.45,0,0,0-.44-.45h0a.45.45,0,0,0-.44.45h0A.45.45,0,0,0,663,147.27ZM670,251.74a.8.8,0,0,0,.8-.81h0a.81.81,0,0,0-.8-.81h0a.81.81,0,0,0-.79.82h0A.8.8,0,0,0,670,251.74Zm-22.52,36.77a.91.91,0,1,0-.89-.91A.9.9,0,0,0,647.49,288.52Zm8.4-245.72h0a.09.09,0,0,0,0-.18h0a.09.09,0,0,0,0,.18Zm-4.87,298a1.09,1.09,0,1,0-1.06-1.09A1.08,1.08,0,0,0,651,340.75Zm-1.77-26.12h0a1,1,0,0,0,1-1h0a1,1,0,1,0-1,1Zm8.4-245.72a.18.18,0,0,0,.18-.18h0a.18.18,0,1,0-.35,0A.18.18,0,0,0,657.66,68.91ZM659.43,95h0a.27.27,0,1,0-.27-.27A.27.27,0,0,0,659.43,95Zm1.77,26.12a.36.36,0,1,0-.35-.36h0A.36.36,0,0,0,661.19,121.15Zm-98.92,16.49h0Zm12.36,182.83a.9.9,0,0,0,.89-.91h0a.89.89,0,1,0-.89.91Zm-1.77-26.12a.81.81,0,0,0,.8-.82h0a.8.8,0,1,0-.8.82Zm-3.53-52.24a.63.63,0,0,0,.62-.63h0a.63.63,0,0,0-.62-.63h0a.63.63,0,0,0,0,1.27Zm1.77,26.12a.72.72,0,1,0-.71-.72A.72.72,0,0,0,571.1,268.23ZM583,74.75a.09.09,0,0,0,0-.18h0a.09.09,0,0,0-.09.09h0A.09.09,0,0,0,583,74.75ZM586.56,127a.27.27,0,1,0-.27-.27A.27.27,0,0,0,586.56,127Zm-1.77-26.12a.18.18,0,1,0-.18-.18A.18.18,0,0,0,584.79,100.87Zm3.53,52.24h0a.36.36,0,0,0,.35-.36h0a.35.35,0,1,0-.35.36Zm-26.05-15.47a.27.27,0,1,0-.26-.27A.27.27,0,0,0,562.27,137.64Zm-1.76-26.12h0a.18.18,0,1,0-.18-.18A.18.18,0,0,0,560.51,111.52ZM567.56,216h0a.54.54,0,1,0-.53-.54A.54.54,0,0,0,567.57,216ZM675.31,330.1a1.09,1.09,0,1,0-1.06-1.09A1.08,1.08,0,0,0,675.31,330.1ZM565.8,189.88a.45.45,0,1,0-.44-.45h0A.45.45,0,0,0,565.8,189.88ZM564,163.76a.36.36,0,1,0-.35-.36A.36.36,0,0,0,564,163.76Zm48.58-21.3h0a.36.36,0,0,0,.35-.36h0a.35.35,0,1,0-.35.36Zm3.53,52.24a.54.54,0,1,0-.53-.54h0A.54.54,0,0,0,616.14,194.69Zm-26.06-15.47a.45.45,0,0,0,0-.91h0a.45.45,0,0,0,0,.91Zm19-89h0a.18.18,0,1,0-.18-.18A.18.18,0,0,0,609.08,90.22Zm1.77,26.12h0a.27.27,0,1,0-.27-.27h0A.27.27,0,0,0,610.85,116.34Zm3.53,52.24a.45.45,0,0,0,.44-.45h0a.44.44,0,1,0-.44.45Zm0,0h0ZM607.32,64.1a.09.09,0,0,0,0-.18.09.09,0,0,0,0,.18Zm-13.7,167.36a.63.63,0,0,0,.62-.63h0a.63.63,0,0,0-.62-.63h0a.63.63,0,0,0,0,1.27Zm1.76,26.12a.72.72,0,0,0,.71-.72h0a.71.71,0,1,0-.71.72Zm-3.53-52.24a.54.54,0,0,0,.53-.54h0a.53.53,0,1,0-1.06,0h0A.54.54,0,0,0,591.86,205.34Zm7.85,129.6a1,1,0,1,0,1.95,0h0a1,1,0,0,0-1-1h0a1,1,0,0,0-1,1Zm-.79-25.12a.9.9,0,0,0,.89-.91h0a.89.89,0,1,0-.89.91Zm-1.77-26.12a.81.81,0,0,0,.8-.81h0a.81.81,0,0,0-.8-.81h0a.8.8,0,0,0-.79.81h0A.8.8,0,0,0,597.15,283.7Zm97.15-42.61h0a.81.81,0,0,0,.8-.81h0a.8.8,0,1,0-.8.82Zm43.28-99.66h0a.54.54,0,1,0-.53-.54h0A.54.54,0,0,0,737.59,141.43Zm-1.77-26.12a.45.45,0,0,0,.44-.45h0a.45.45,0,0,0-.44-.45h0a.45.45,0,0,0,0,.91Zm-1.76-26.12a.36.36,0,0,0,.35-.36h0a.35.35,0,1,0-.71,0h0A.36.36,0,0,0,734.06,89.19ZM675.93,355a1.15,1.15,0,1,0,1.15-1.18A1.16,1.16,0,0,0,675.93,355Zm63.43-187.49a.63.63,0,0,0,.62-.63h0a.63.63,0,0,0-.62-.63h0a.63.63,0,0,0,0,1.27ZM732.3,63.07a.27.27,0,1,0-.27-.27A.27.27,0,0,0,732.3,63.07Zm8.83,130.6a.72.72,0,0,0,.71-.73h0a.71.71,0,1,0-.71.73ZM728.77,10.84h0a.09.09,0,0,0,.09-.09.09.09,0,1,0-.18,0h0A.09.09,0,0,0,728.77,10.84Zm-4.26,322.9a1.15,1.15,0,1,0,1.15-1.18A1.17,1.17,0,0,0,724.51,333.74Zm-.61-24.94h0a1.09,1.09,0,1,0-1.06-1.08A1.07,1.07,0,0,0,723.89,308.79Zm2.29,51a1.24,1.24,0,1,0,1.24-1.27A1.25,1.25,0,0,0,726.18,359.76Zm1.67,26a1.33,1.33,0,1,0,1.33-1.36A1.34,1.34,0,0,0,727.86,385.79ZM744.65,245.9a.91.91,0,1,0-.89-.91A.9.9,0,0,0,744.65,245.9ZM730.53,37a.18.18,0,0,0,.18-.18h0a.18.18,0,1,0-.18.18Zm29.59,67.7a.45.45,0,0,0,.44-.45h0a.45.45,0,0,0-.44-.45h0a.45.45,0,0,0-.44.45h0A.45.45,0,0,0,760.12,104.66Zm-3.53-52.24a.27.27,0,0,0,.27-.27h0a.27.27,0,1,0-.27.27ZM721.15,281.68a1,1,0,1,0,1.95,0h0a1,1,0,0,0-1-1h0a1,1,0,0,0-1,1Zm37.2-203.14a.36.36,0,0,0,.35-.36h0a.35.35,0,1,0-.35.36Zm3.53,52.24a.54.54,0,1,0-.53-.54A.54.54,0,0,0,761.88,130.78Zm1.76,26.12a.63.63,0,0,0,.62-.63h0a.62.62,0,1,0-.62.63ZM765.41,183a.72.72,0,1,0-.71-.72h0A.71.71,0,0,0,765.41,183ZM748.18,298.14h0a1.09,1.09,0,1,0-1.07-1.09A1.07,1.07,0,0,0,748.18,298.14Zm.61,24.94a1.15,1.15,0,1,0,1.15-1.18A1.16,1.16,0,0,0,748.79,323.08ZM745.44,271a1,1,0,1,0,1-1h0a1,1,0,0,0-1,1Zm5,78.08a1.24,1.24,0,1,0,1.24-1.27A1.25,1.25,0,0,0,750.47,349.11Zm1.68,26a1.34,1.34,0,0,0,1.33,1.36h0a1.36,1.36,0,1,0-1.33-1.36ZM754.82,26.3a.18.18,0,1,0-.18-.18A.18.18,0,0,0,754.82,26.3ZM753.05.18a.09.09,0,0,0,.09-.09h0a.09.09,0,1,0-.18,0h0A.09.09,0,0,0,753.05.18Zm-10.17,219.6a.82.82,0,0,0,0-1.63h0a.81.81,0,0,0-.8.82h0A.81.81,0,0,0,742.89,219.79Zm-52.11-30.93a.63.63,0,0,0,.62-.63h0a.63.63,0,0,0-.62-.63h0a.63.63,0,0,0,0,1.27ZM689,162.74h0Zm31.35,93.82a.9.9,0,0,0,.89-.91h0a.89.89,0,1,0-.89.91ZM699.6,319.45a1.09,1.09,0,1,0-1.06-1.09A1.08,1.08,0,0,0,699.6,319.45ZM689,162.73a.54.54,0,1,0-.53-.54h0A.54.54,0,0,0,689,162.73Zm78.16,46.4a.81.81,0,1,0-.8-.81A.81.81,0,0,0,767.17,209.13Zm-71.1,58.08a.91.91,0,1,0-.89-.9A.9.9,0,0,0,696.07,267.21Zm1.77,26.12a1,1,0,0,0,0-2h0a1,1,0,0,0,0,2ZM680.19,32.14a.09.09,0,0,0,.09-.09h0a.09.09,0,0,0-.09-.09.09.09,0,1,0,0,.18ZM682,58.26a.18.18,0,1,0-.18-.18A.18.18,0,0,0,682,58.26ZM677.6,381.07a1.24,1.24,0,1,0,1.24-1.27A1.25,1.25,0,0,0,677.6,381.07Zm9.64-244.45h0a.45.45,0,0,0,.44-.45h0a.45.45,0,0,0-.44-.45h0a.45.45,0,0,0-.44.45h0A.45.45,0,0,0,687.25,136.62Zm-3.53-52.24a.27.27,0,0,0,0-.54h0a.27.27,0,0,0,0,.54Zm-125,1a.09.09,0,1,0-.09-.09A.09.09,0,0,0,558.74,85.4ZM692.54,215a.72.72,0,1,0-.71-.72A.72.72,0,0,0,692.54,215Zm22.52-36.77a.63.63,0,0,0,.62-.63h0a.63.63,0,0,0-.62-.63h0a.63.63,0,0,0,0,1.27Zm1.76,26.12a.72.72,0,0,0,.71-.72h0a.71.71,0,1,0-.71.72Zm-3.53-52.24a.54.54,0,1,0-.53-.54h0A.54.54,0,0,0,713.3,152.08Zm5.3,78.36a.81.81,0,0,0,.8-.81h0a.81.81,0,0,0-.8-.81h0a.81.81,0,0,0,0,1.63ZM711.53,126h0a.45.45,0,0,0,.44-.45h0a.45.45,0,0,0-.44-.45h0a.45.45,0,0,0,0,.9Zm5.3,78.36h0ZM709.77,99.84a.36.36,0,0,0,.35-.36h0a.35.35,0,1,0-.35.36Zm-5.3-78.36h0a.09.09,0,0,0,0-.18h0a.09.09,0,0,0,0,.18Zm-2.58,348.93a1.24,1.24,0,1,0,1.24-1.27A1.26,1.26,0,0,0,701.89,370.42Zm1.68,26a1.34,1.34,0,0,0,1.33,1.36h0a1.36,1.36,0,1,0-1.33-1.36Zm-3.35-52.06a1.16,1.16,0,0,0,1.15,1.18h0a1.18,1.18,0,1,0-1.15-1.18Zm6-296.78a.18.18,0,0,0,0-.36.18.18,0,0,0-.17.18A.18.18,0,0,0,706.24,47.61ZM708,73.72a.27.27,0,1,0-.27-.27A.27.27,0,0,0,708,73.72Zm-56.37,292a1.15,1.15,0,1,0,1.15-1.18A1.16,1.16,0,0,0,651.64,365.69Zm379.62,22.41a1.79,1.79,0,0,0-1.77-1.81h0a1.81,1.81,0,1,0,1.77,1.81Zm3.71,52.06a2,2,0,0,0-1.95-2h0a2,2,0,1,0,2,2Zm-1.86-26a1.86,1.86,0,1,0-1.86,1.9A1.88,1.88,0,0,0,1033.11,414.13Zm-3.71-52.06a1.7,1.7,0,0,0-1.68-1.72h0a1.72,1.72,0,1,0,1.68,1.72ZM1023.84,284a1.42,1.42,0,1,0-1.42,1.45A1.43,1.43,0,0,0,1023.84,284Zm1.85,26a1.51,1.51,0,1,0-1.51,1.54A1.52,1.52,0,0,0,1025.69,310Zm1.85,26a1.59,1.59,0,1,0-1.6,1.63A1.61,1.61,0,0,0,1027.55,336Zm20.58-62.71a1.42,1.42,0,1,0-1.42,1.45A1.43,1.43,0,0,0,1048.13,273.34Zm-3.9,297a2.39,2.39,0,1,0-2.39,2.45A2.42,2.42,0,0,0,1044.23,570.3Zm-1.85-26a2.3,2.3,0,1,0-2.3,2.35A2.33,2.33,0,0,0,1042.38,544.27Zm-5.56-78.09a2,2,0,1,0-2,2.08A2.06,2.06,0,0,0,1036.81,466.19Zm6.79,127.61a2.54,2.54,0,1,0,2.48,2.54A2.51,2.51,0,0,0,1043.6,593.79Zm-3.08-75.55a2.22,2.22,0,1,0-2.22,2.26A2.24,2.24,0,0,0,1040.52,518.24Zm-21.21,86.2a2.54,2.54,0,1,0,2.48,2.53A2.51,2.51,0,0,0,1019.31,604.45Zm19.36-112.23a2.13,2.13,0,1,0-2.13,2.17A2.15,2.15,0,0,0,1038.67,492.21ZM1003.26,346.7a1.61,1.61,0,0,0-1.59-1.63h0a1.63,1.63,0,1,0,1.59,1.63ZM1019.94,581a2.39,2.39,0,1,0-2.39,2.45A2.42,2.42,0,0,0,1019.94,581Zm-14.83-208.23a1.68,1.68,0,1,0-1.68,1.72A1.7,1.7,0,0,0,1005.11,372.72Zm-3.71-52.06a1.51,1.51,0,1,0-1.51,1.54A1.52,1.52,0,0,0,1001.4,320.67Zm-1.85-26a1.42,1.42,0,1,0-1.42,1.45A1.43,1.43,0,0,0,999.55,294.64Zm-3.9,297a2.39,2.39,0,1,0-2.39,2.44A2.42,2.42,0,0,0,995.65,591.6ZM995,615.1a2.54,2.54,0,1,0,2.48,2.53A2.51,2.51,0,0,0,995,615.1ZM1007,398.75a1.77,1.77,0,1,0-1.77,1.81A1.79,1.79,0,0,0,1007,398.75Zm9.27,130.14a2.24,2.24,0,0,0-2.21-2.26h0a2.26,2.26,0,1,0,2.21,2.26Zm1.85,26a2.3,2.3,0,1,0-2.3,2.35A2.33,2.33,0,0,0,1018.09,554.92Zm-9.27-130.14a1.86,1.86,0,1,0-1.86,1.9A1.88,1.88,0,0,0,1008.82,424.78Zm5.56,78.09a2.13,2.13,0,1,0-2.13,2.17A2.15,2.15,0,0,0,1014.38,502.87Zm-1.85-26a2,2,0,1,0-2,2.08A2.06,2.06,0,0,0,1012.53,476.84Zm-1.85-26a1.95,1.95,0,1,0-1.95,2A2,2,0,0,0,1010.67,450.81Zm63.6-162.1a1.51,1.51,0,1,0-1.5,1.54A1.52,1.52,0,0,0,1074.27,288.71Zm9.27,130.14a1.95,1.95,0,1,0-1.95,2A2,2,0,0,0,1083.54,418.85Zm-1.85-26a1.86,1.86,0,1,0-1.86,1.9A1.88,1.88,0,0,0,1081.69,392.82Zm3.71,52.06a2,2,0,1,0-2,2.08A2.06,2.06,0,0,0,1085.39,444.88ZM993.8,565.58a2.33,2.33,0,0,0-2.3-2.35h0a2.35,2.35,0,1,0,2.3,2.35Zm82.32-250.84a1.59,1.59,0,1,0-1.59,1.63A1.61,1.61,0,0,0,1076.12,314.74Zm1.85,26a1.68,1.68,0,1,0-1.68,1.72A1.7,1.7,0,0,0,1078,340.77Zm1.85,26a1.79,1.79,0,0,0-1.77-1.81h0a1.81,1.81,0,1,0,1.77,1.81Zm7.42,104.11a2.13,2.13,0,1,0-2.12,2.17A2.15,2.15,0,0,0,1087.25,470.91ZM1093.87,252h0Zm-1.69,320.46a2.54,2.54,0,1,0,2.48,2.53A2.51,2.51,0,0,0,1092.18,572.49ZM1096.71,252a1.42,1.42,0,1,0-1.42,1.45A1.43,1.43,0,0,0,1096.71,252ZM1091,523a2.33,2.33,0,0,0-2.3-2.35h0A2.36,2.36,0,1,0,1091,523Zm-41-223.6a1.51,1.51,0,1,0-1.51,1.54A1.52,1.52,0,0,0,1050,299.36ZM1092.81,549a2.39,2.39,0,1,0-2.39,2.45A2.42,2.42,0,0,0,1092.81,549Zm-3.71-52.06a2.21,2.21,0,1,0-2.21,2.27A2.24,2.24,0,0,0,1089.1,496.94Zm-29.85-67.43a1.95,1.95,0,1,0-1.95,2A2,2,0,0,0,1059.25,429.51Zm-3.71-52.06a1.77,1.77,0,1,0-1.77,1.81A1.79,1.79,0,0,0,1055.54,377.45Zm16.87-114.77a1.42,1.42,0,1,0-1.42,1.45A1.43,1.43,0,0,0,1072.42,262.68Zm-15,140.79a1.86,1.86,0,1,0-1.86,1.9A1.88,1.88,0,0,0,1057.4,403.48Zm-5.56-78.09a1.59,1.59,0,1,0-1.59,1.63A1.61,1.61,0,0,0,1051.84,325.39Zm1.85,26a1.68,1.68,0,1,0-1.68,1.72A1.7,1.7,0,0,0,1053.69,351.42Zm3.61,76.09h0Zm11.22,132.13a2.39,2.39,0,1,0-2.39,2.45A2.42,2.42,0,0,0,1068.52,559.64Zm-1.85-26a2.3,2.3,0,1,0-2.3,2.35A2.33,2.33,0,0,0,1066.66,533.62Zm1.23,49.52a2.54,2.54,0,1,0,2.48,2.53A2.51,2.51,0,0,0,1067.89,583.14ZM1063,481.56a2.13,2.13,0,1,0-2.13,2.17A2.15,2.15,0,0,0,1063,481.56Zm-1.85-26a2.06,2.06,0,0,0-2-2.08h0a2.08,2.08,0,1,0,2,2.08Zm3.71,52.06a2.22,2.22,0,1,0-2.21,2.27A2.24,2.24,0,0,0,1064.81,507.59ZM932.24,404.68a1.68,1.68,0,1,0-1.68,1.72A1.7,1.7,0,0,0,932.24,404.68Zm-5.56-78.08a1.42,1.42,0,1,0-1.42,1.45A1.43,1.43,0,0,0,926.68,326.6Zm-9.46,218.88a2.13,2.13,0,1,0-2.13,2.17A2.15,2.15,0,0,0,917.22,545.48Zm4.93,101.58a2.54,2.54,0,1,0,2.48,2.53A2.51,2.51,0,0,0,922.16,647.06Zm6.38-294.43a1.51,1.51,0,1,0-1.51,1.54A1.52,1.52,0,0,0,928.53,352.63Zm-9.46,218.88a2.21,2.21,0,1,0-2.21,2.26A2.24,2.24,0,0,0,919.07,571.51Zm1.85,26a2.3,2.3,0,1,0-2.3,2.35A2.33,2.33,0,0,0,920.93,597.53Zm1.85,26a2.42,2.42,0,0,0-2.39-2.45h0a2.45,2.45,0,1,0,2.39,2.45Zm7.61-244.91a1.61,1.61,0,0,0-1.59-1.63h0a1.63,1.63,0,1,0,1.59,1.63Zm7.41,104.11a1.95,1.95,0,1,0-1.95,2A2,2,0,0,0,937.8,482.77Zm1.85,26a2,2,0,1,0-2,2.08A2.06,2.06,0,0,0,939.66,508.8Zm1.85,26a2.13,2.13,0,1,0-2.13,2.17A2.15,2.15,0,0,0,941.51,534.83ZM934.1,430.71a1.79,1.79,0,0,0-1.77-1.81h0a1.81,1.81,0,1,0,1.77,1.81Zm164.46-152.65a1.51,1.51,0,1,0-1.51,1.54A1.52,1.52,0,0,0,1098.56,278.06ZM935.95,456.74a1.86,1.86,0,1,0-1.86,1.9A1.88,1.88,0,0,0,935.95,456.74ZM896.64,608.19a2.3,2.3,0,1,0-2.3,2.35A2.33,2.33,0,0,0,896.64,608.19Zm5.75-270.93A1.42,1.42,0,1,0,901,338.7,1.43,1.43,0,0,0,902.39,337.25Zm-4.53,320.46a2.54,2.54,0,1,0,2.48,2.53A2.51,2.51,0,0,0,897.87,657.71Zm6.38-294.43a1.51,1.51,0,1,0-1.51,1.54A1.52,1.52,0,0,0,904.25,363.28Zm-9.46,218.88a2.21,2.21,0,1,0-2.21,2.26A2.24,2.24,0,0,0,894.79,582.16Zm9.72-194.48h0Zm38.86,173.17a2.21,2.21,0,1,0-2.21,2.26A2.24,2.24,0,0,0,943.36,560.85Zm48.58-21.31a2.24,2.24,0,0,0-2.21-2.26h0a2.26,2.26,0,1,0,2.21,2.26ZM908,415.34a1.68,1.68,0,1,0-1.68,1.72A1.7,1.7,0,0,0,908,415.34Zm-1.85-26a1.59,1.59,0,1,0-1.59,1.63A1.61,1.61,0,0,0,906.1,389.31Zm5.56,78.09a1.86,1.86,0,1,0-1.86,1.9A1.88,1.88,0,0,0,911.66,467.39Zm1.86,26a1.95,1.95,0,1,0-2,2A2,2,0,0,0,913.52,493.42Zm-3.71-52.05a1.77,1.77,0,1,0-1.77,1.81A1.79,1.79,0,0,0,909.81,441.37Zm5.56,78.08a2,2,0,1,0-2,2.08A2.06,2.06,0,0,0,915.37,519.45Zm-9.1-105.83h0Zm-7.78,220.6a2.42,2.42,0,0,0-2.39-2.45h0a2.45,2.45,0,1,0,2.39,2.45Zm46.73-47.33a2.3,2.3,0,1,0-2.3,2.35A2.33,2.33,0,0,0,945.22,586.88Zm31.9-255.56a1.52,1.52,0,0,0-1.51-1.54h0a1.54,1.54,0,1,0,1.51,1.54Zm3.71,52.06a1.68,1.68,0,1,0-1.68,1.72A1.7,1.7,0,0,0,980.82,383.38ZM969.51,576.23a2.3,2.3,0,1,0-2.3,2.35A2.33,2.33,0,0,0,969.51,576.23Zm5.75-270.94a1.42,1.42,0,1,0-2.83,0h0a1.42,1.42,0,1,0,2.83,0Zm-3.9,297A2.39,2.39,0,1,0,969,604.7,2.42,2.42,0,0,0,971.36,602.26Zm-.63,23.49a2.54,2.54,0,1,0,2.48,2.53A2.51,2.51,0,0,0,970.74,625.75Zm8.4-244.09h0ZM988,511.35h0Zm-5.29-101.94a1.79,1.79,0,0,0-1.77-1.81h0a1.81,1.81,0,1,0,1.77,1.81Zm5.56,78.09a2,2,0,1,0-2,2.08A2.06,2.06,0,0,0,988.24,487.49Zm1.85,26a2.13,2.13,0,1,0-2.12,2.17A2.15,2.15,0,0,0,990.09,513.52Zm-5.56-78.09a1.86,1.86,0,1,0-1.86,1.9A1.88,1.88,0,0,0,984.53,435.43Zm1.85,26a1.95,1.95,0,1,0-1.95,2A2,2,0,0,0,986.38,461.46ZM979,357.35a1.59,1.59,0,1,0-1.59,1.63A1.61,1.61,0,0,0,979,357.35ZM956.53,394a1.68,1.68,0,1,0-1.68,1.72A1.7,1.7,0,0,0,956.53,394ZM951,315.95a1.42,1.42,0,1,0-1.42,1.45A1.43,1.43,0,0,0,951,315.95ZM954.68,368a1.61,1.61,0,0,0-1.59-1.63h0a1.63,1.63,0,1,0,1.59,1.63Zm-1.85-26a1.52,1.52,0,0,0-1.5-1.54h0a1.54,1.54,0,1,0,1.51,1.54Zm-5.75,270.93a2.39,2.39,0,1,0-2.39,2.45A2.42,2.42,0,0,0,947.07,612.91Zm-.63,23.49a2.54,2.54,0,1,0,2.48,2.53A2.51,2.51,0,0,0,946.45,636.4Zm17.5-138.26a2,2,0,1,0-2,2.08A2.06,2.06,0,0,0,963.95,498.14Zm3.71,52.05a2.21,2.21,0,1,0-2.21,2.26A2.24,2.24,0,0,0,967.65,550.2Zm-5.74-54.14h0Zm-3.52-76a1.79,1.79,0,0,0-1.77-1.81h0a1.81,1.81,0,1,0,1.77,1.81Zm7.41,104.11a2.13,2.13,0,1,0-2.12,2.17A2.15,2.15,0,0,0,965.8,524.17Zm-3.71-52.06a1.95,1.95,0,1,0-1.95,2A2,2,0,0,0,962.09,472.12Zm-1.85-26a1.86,1.86,0,1,0-1.86,1.9A1.88,1.88,0,0,0,960.24,446.09Zm227.87,34.27a2.33,2.33,0,0,0-2.3-2.35h0a2.35,2.35,0,1,0,2.3,2.35Zm74.72-5.93a2.39,2.39,0,1,0-2.39,2.45A2.42,2.42,0,0,0,1262.83,474.42Zm-.63,23.49a2.54,2.54,0,1,0,2.48,2.53A2.51,2.51,0,0,0,1262.21,497.92ZM1212.4,469.7a2.3,2.3,0,1,0-2.3,2.35A2.33,2.33,0,0,0,1212.4,469.7Zm44.87-73.36a2.13,2.13,0,1,0-2.13,2.17A2.15,2.15,0,0,0,1257.27,396.34Zm-1.85-26a2,2,0,1,0-2,2.08A2.06,2.06,0,0,0,1255.42,370.31Zm3.71,52.06a2.21,2.21,0,1,0-2.21,2.26A2.24,2.24,0,0,0,1259.12,422.37ZM1276,307.6a1.86,1.86,0,1,0-1.86,1.9A1.88,1.88,0,0,0,1276,307.6Zm-22.43,36.68a1.95,1.95,0,1,0-1.95,2A2,2,0,0,0,1253.57,344.28Zm31.7,93.46a2.3,2.3,0,1,0-2.3,2.35A2.33,2.33,0,0,0,1285.27,437.74Zm-1.85-26a2.21,2.21,0,1,0-2.21,2.26A2.24,2.24,0,0,0,1283.41,411.72Zm3.71,52.06a2.39,2.39,0,1,0-2.39,2.45A2.42,2.42,0,0,0,1287.12,463.77Zm-5.56-78.09a2.13,2.13,0,1,0-2.13,2.17A2.15,2.15,0,0,0,1281.56,385.69Zm-181.15-81.6a1.61,1.61,0,0,0-1.59-1.63h0a1.63,1.63,0,1,0,1.59,1.63Zm179.29,55.57a2,2,0,1,0-2,2.08A2.06,2.06,0,0,0,1279.71,359.66ZM1233,407a2.13,2.13,0,1,0-2.12,2.17A2.15,2.15,0,0,0,1233,407Zm-7.41-104.11a1.79,1.79,0,0,0-1.77-1.81h0a1.81,1.81,0,1,0,1.77,1.81Zm1.85,26a1.86,1.86,0,1,0-1.86,1.9A1.88,1.88,0,0,0,1227.42,328.91Zm3.71,52.06a2,2,0,1,0-2,2.08A2.06,2.06,0,0,0,1231.13,381Zm-1.85-26a1.95,1.95,0,1,0-1.95,2A2,2,0,0,0,1229.27,354.94Zm-15,140.79a2.39,2.39,0,1,0-2.39,2.44A2.42,2.42,0,0,0,1214.25,495.73Zm9.46-218.88a1.68,1.68,0,1,0-1.68,1.72A1.7,1.7,0,0,0,1223.71,276.85Zm28,41.4a1.86,1.86,0,1,0-1.86,1.9A1.88,1.88,0,0,0,1251.71,318.26Zm-38.08,201a2.54,2.54,0,1,0,2.48,2.54A2.51,2.51,0,0,0,1213.63,519.22Zm24.29-10.65a2.54,2.54,0,1,0,2.48,2.53A2.51,2.51,0,0,0,1237.92,508.57Zm.63-23.49a2.42,2.42,0,0,0-2.39-2.45h0a2.45,2.45,0,1,0,2.39,2.45Zm48,2.19h0a2.54,2.54,0,1,0,2.48,2.54A2.51,2.51,0,0,0,1286.5,487.27Zm-36.64-195a1.79,1.79,0,0,0-1.77-1.81h0a1.81,1.81,0,1,0,1.77,1.81Zm-15,140.79a2.21,2.21,0,1,0-2.21,2.26A2.24,2.24,0,0,0,1234.84,433Zm1.85,26a2.3,2.3,0,1,0-2.3,2.35A2.33,2.33,0,0,0,1236.69,459ZM1261,448.4a2.33,2.33,0,0,0-2.3-2.35h0a2.35,2.35,0,1,0,2.3,2.35Zm121.45-53.26a2.3,2.3,0,1,0-2.3,2.35A2.33,2.33,0,0,0,1382.42,395.13Zm-1.85-26a2.21,2.21,0,1,0-2.21,2.26A2.24,2.24,0,0,0,1380.57,369.11Zm3.71,52.06a2.39,2.39,0,1,0-2.39,2.45A2.42,2.42,0,0,0,1384.28,421.16Zm-28-41.4a2.21,2.21,0,1,0-2.21,2.26A2.24,2.24,0,0,0,1356.28,379.76Zm1.85,26a2.3,2.3,0,1,0-2.3,2.35A2.33,2.33,0,0,0,1358.14,405.79Zm25.52,38.87a2.54,2.54,0,1,0,2.48,2.54A2.51,2.51,0,0,0,1383.65,444.66ZM1360,431.82a2.39,2.39,0,1,0-2.39,2.44A2.42,2.42,0,0,0,1360,431.82Zm-.63,23.49a2.54,2.54,0,1,0,2.48,2.54A2.51,2.51,0,0,0,1359.36,455.31Zm72.87-32a2.54,2.54,0,1,0,2.48,2.53A2.51,2.51,0,0,0,1432.23,423.35Zm24.29-10.65a2.54,2.54,0,1,0,2.48,2.53A2.51,2.51,0,0,0,1456.52,412.7Zm-23.66-12.84a2.39,2.39,0,1,0-2.39,2.45A2.42,2.42,0,0,0,1432.86,399.86Zm-24.29,10.65a2.39,2.39,0,1,0-2.39,2.45A2.42,2.42,0,0,0,1408.57,410.51Zm-.63,23.49a2.54,2.54,0,1,0,2.48,2.53A2.51,2.51,0,0,0,1407.94,434Zm-1.23-49.52a2.3,2.3,0,1,0-2.3,2.35A2.33,2.33,0,0,0,1406.71,384.48ZM1335.07,466a2.54,2.54,0,1,0,2.48,2.54A2.51,2.51,0,0,0,1335.07,466Zm-25.52-38.87a2.3,2.3,0,1,0-2.3,2.35A2.33,2.33,0,0,0,1309.56,427.09Zm1.85,26a2.39,2.39,0,1,0-2.39,2.45A2.42,2.42,0,0,0,1311.41,453.12Zm-3.71-52.06a2.22,2.22,0,1,0-2.21,2.27A2.24,2.24,0,0,0,1307.7,401.06Zm-1.85-26a2.15,2.15,0,0,0-2.12-2.17h0a2.17,2.17,0,1,0,2.13,2.17Zm4.93,101.58a2.54,2.54,0,1,0,2.48,2.54A2.51,2.51,0,0,0,1310.78,476.61ZM1304,349a2.06,2.06,0,0,0-2-2.08h0a2.08,2.08,0,1,0,2,2.08Zm28,41.4a2.22,2.22,0,1,0-2.21,2.27A2.24,2.24,0,0,0,1332,390.41Zm3.71,52.06a2.39,2.39,0,1,0-2.39,2.45A2.42,2.42,0,0,0,1335.7,442.47Zm-1.85-26a2.3,2.3,0,1,0-2.3,2.36A2.33,2.33,0,0,0,1333.85,416.44ZM1302.14,323a1.95,1.95,0,1,0-1.95,2A2,2,0,0,0,1302.14,323Zm26.14,15.38a2.06,2.06,0,0,0-2-2.08h0a2.08,2.08,0,1,0,2,2.08Zm1.85,26a2.13,2.13,0,1,0-2.12,2.17A2.15,2.15,0,0,0,1330.14,364.38Zm24.29-10.65a2.15,2.15,0,0,0-2.13-2.17h0a2.17,2.17,0,1,0,2.13,2.17Zm-76.57-20.1a1.95,1.95,0,1,0-1.95,2A2,2,0,0,0,1277.85,333.63Zm-67.31,110a2.22,2.22,0,1,0-2.21,2.26A2.24,2.24,0,0,0,1210.55,443.67Zm-75.08,29.69h0ZM1134,423.57a2.06,2.06,0,0,0-2-2.08h0a2.08,2.08,0,1,0,2,2.08Zm3.71,52.06a2.21,2.21,0,1,0-2.21,2.26A2.24,2.24,0,0,0,1137.68,475.63Zm-9.27-130.14a1.79,1.79,0,0,0-1.77-1.81h0a1.81,1.81,0,1,0,1.77,1.81Zm1.86,26a1.86,1.86,0,1,0-1.86,1.9A1.88,1.88,0,0,0,1130.27,371.52Zm1.85,26a1.95,1.95,0,1,0-1.95,2A2,2,0,0,0,1132.12,397.55Zm9.27,130.14a2.39,2.39,0,1,0-2.39,2.45A2.42,2.42,0,0,0,1141.39,527.69Zm5.75-270.93a1.51,1.51,0,1,0-1.51,1.54A1.52,1.52,0,0,0,1147.14,256.75Zm1.85,26a1.59,1.59,0,1,0-1.59,1.63A1.61,1.61,0,0,0,1149,282.78Zm-3.71-52.05a1.42,1.42,0,1,0-1.42,1.45A1.43,1.43,0,0,0,1145.29,230.73Zm-4.53,320.45h0a2.54,2.54,0,1,0,2.48,2.53A2.51,2.51,0,0,0,1140.76,551.18Zm-14.2-231.72a1.68,1.68,0,1,0-1.68,1.72A1.7,1.7,0,0,0,1126.56,319.46Zm13,182.2a2.3,2.3,0,1,0-2.3,2.35A2.33,2.33,0,0,0,1139.53,501.66ZM1124.7,293.43a1.59,1.59,0,1,0-1.6,1.63A1.61,1.61,0,0,0,1124.7,293.43Zm-13.17,166.82a2.13,2.13,0,1,0-2.13,2.17A2.15,2.15,0,0,0,1111.54,460.26Zm-1.85-26a2,2,0,1,0-2,2.08A2.06,2.06,0,0,0,1109.68,434.23Zm41.16-125.42a1.68,1.68,0,1,0-1.68,1.72A1.7,1.7,0,0,0,1150.85,308.81Zm-43,99.39a1.95,1.95,0,1,0-1.95,2A2,2,0,0,0,1107.83,408.2Zm-3.71-52.06a1.79,1.79,0,0,0-1.77-1.81h0a1.81,1.81,0,1,0,1.77,1.81Zm-1.85-26a1.68,1.68,0,1,0-1.68,1.72A1.7,1.7,0,0,0,1102.27,330.11Zm3.71,52.06a1.86,1.86,0,1,0-1.86,1.9A1.88,1.88,0,0,0,1106,382.17Zm15-140.79a1.42,1.42,0,1,0-1.42,1.45A1.43,1.43,0,0,0,1121,241.38Zm-4.53,320.46a2.54,2.54,0,1,0,2.48,2.53A2.51,2.51,0,0,0,1116.47,561.83Zm6.38-294.43a1.51,1.51,0,1,0-1.51,1.54A1.52,1.52,0,0,0,1122.85,267.4Zm-9.46,218.88a2.21,2.21,0,1,0-2.21,2.27A2.24,2.24,0,0,0,1113.39,486.28Zm1.85,26a2.3,2.3,0,1,0-2.3,2.36A2.33,2.33,0,0,0,1115.24,512.31Zm1.85,26a2.42,2.42,0,0,0-2.39-2.44h0a2.45,2.45,0,1,0,2.39,2.44Zm18.73-88.74a2.15,2.15,0,0,0-2.13-2.17h0a2.17,2.17,0,1,0,2.13,2.17ZM892.93,556.13a2.13,2.13,0,1,0-2.13,2.17A2.15,2.15,0,0,0,892.93,556.13Zm297-49.75a2.39,2.39,0,1,0-2.39,2.44A2.42,2.42,0,0,0,1190,506.38Zm-.63,23.49h0a2.54,2.54,0,1,0,2.48,2.54A2.51,2.51,0,0,0,1189.34,529.88Zm-3.08-75.55a2.22,2.22,0,1,0-2.22,2.26A2.24,2.24,0,0,0,1186.26,454.33Zm-3.71-52.06a2,2,0,1,0-2,2.08A2.06,2.06,0,0,0,1182.55,402.27Zm15-140.79a1.61,1.61,0,0,0-1.59-1.63h0a1.63,1.63,0,1,0,1.59,1.63ZM1184.4,428.3a2.13,2.13,0,1,0-2.13,2.17A2.15,2.15,0,0,0,1184.4,428.3Zm16.88-114.77a1.77,1.77,0,1,0-1.77,1.81A1.79,1.79,0,0,0,1201.28,313.53Zm-1.85-26a1.7,1.7,0,0,0-1.68-1.72h0a1.72,1.72,0,1,0,1.68,1.72Zm5.56,78.09a1.95,1.95,0,1,0-1.95,2A2,2,0,0,0,1205,365.59Zm3.71,52.06a2.13,2.13,0,1,0-2.12,2.17A2.15,2.15,0,0,0,1208.69,417.65Zm-1.85-26a2,2,0,1,0-2,2.08A2.06,2.06,0,0,0,1206.84,391.62Zm-3.71-52.06a1.86,1.86,0,1,0-1.86,1.9A1.88,1.88,0,0,0,1203.13,339.56Zm-50.43-4.72a1.79,1.79,0,0,0-1.77-1.81h0a1.81,1.81,0,1,0,1.77,1.81Zm28,41.4a1.95,1.95,0,1,0-1.95,2A2,2,0,0,0,1180.7,376.24ZM1160.11,439a2.13,2.13,0,1,0-2.13,2.17A2.15,2.15,0,0,0,1160.11,439Zm3.71,52.06a2.3,2.3,0,1,0-2.3,2.35A2.33,2.33,0,0,0,1163.82,491Zm15-140.79a1.88,1.88,0,0,0-1.86-1.9h0a1.9,1.9,0,1,0,1.86,1.9ZM1162,465a2.21,2.21,0,1,0-2.21,2.26A2.24,2.24,0,0,0,1162,465Zm-5.56-78.08a1.95,1.95,0,1,0-1.95,2A2,2,0,0,0,1156.41,386.9Zm-1.85-26a1.86,1.86,0,1,0-1.86,1.9A1.88,1.88,0,0,0,1154.55,360.87Zm3.71,52.06a2,2,0,1,0-2,2.08A2.06,2.06,0,0,0,1158.26,412.92Zm16.88-114.77a1.68,1.68,0,1,0-1.68,1.72A1.7,1.7,0,0,0,1175.14,298.16ZM1165.68,517a2.39,2.39,0,1,0-2.39,2.44A2.42,2.42,0,0,0,1165.68,517Zm7.61-244.91a1.61,1.61,0,0,0-1.59-1.63h0a1.63,1.63,0,1,0,1.59,1.63Zm3.71,52.05a1.77,1.77,0,1,0-1.77,1.81A1.79,1.79,0,0,0,1177,324.18Zm-5.56-78.08a1.51,1.51,0,1,0-1.51,1.54A1.52,1.52,0,0,0,1171.43,246.1ZM1165,540.53a2.54,2.54,0,1,0,2.48,2.53A2.51,2.51,0,0,0,1165,540.53ZM500,324.68h0a.82.82,0,1,0,.8.82h0A.81.81,0,0,0,500,324.68ZM616.48,543.17a1.68,1.68,0,1,0-1.68,1.72A1.7,1.7,0,0,0,616.48,543.17Zm15-140.79a1.24,1.24,0,1,0-1.24,1.27A1.25,1.25,0,0,0,631.5,402.37ZM614.63,517.14a1.59,1.59,0,1,0-1.59,1.63A1.61,1.61,0,0,0,614.63,517.14Zm-5.56-78.08a1.34,1.34,0,0,0-1.33-1.36h0a1.36,1.36,0,1,0,1.33,1.36Zm11.12,156.17a1.88,1.88,0,0,0-1.86-1.9h0a1.9,1.9,0,1,0,1.86,1.9Zm-13-182.2a1.24,1.24,0,1,0-1.24,1.27A1.25,1.25,0,0,0,607.21,413Zm5.56,78.09a1.51,1.51,0,1,0-1.51,1.54A1.52,1.52,0,0,0,612.78,491.11Zm-1.85-26a1.42,1.42,0,1,0-1.42,1.45A1.43,1.43,0,0,0,610.92,465.08Zm14.47,232a2.26,2.26,0,1,0,2.21,2.26A2.24,2.24,0,0,0,625.39,697.07Zm4.26-320.73a1.16,1.16,0,0,0-1.15-1.18h0a1.18,1.18,0,1,0,1.15,1.18Zm-3.9,297a2.13,2.13,0,1,0-2.12,2.17A2.15,2.15,0,0,0,625.75,673.31Zm-1.85-26a2,2,0,1,0-2,2.08A2.06,2.06,0,0,0,623.9,647.28Zm-1.85-26a1.95,1.95,0,1,0-1.95,2A2,2,0,0,0,622,621.25Zm1.58,49.89h0ZM618.34,569.2a1.77,1.77,0,1,0-1.77,1.81A1.79,1.79,0,0,0,618.34,569.2ZM891.08,530.1a2.06,2.06,0,0,0-2-2.08h0a2.08,2.08,0,1,0,2,2.08ZM588.49,501.76A1.51,1.51,0,1,0,587,503.3,1.52,1.52,0,0,0,588.49,501.76Zm1.85,26a1.59,1.59,0,1,0-1.59,1.63A1.61,1.61,0,0,0,590.34,527.79Zm1.85,26a1.68,1.68,0,1,0-1.68,1.72A1.7,1.7,0,0,0,592.19,553.82ZM581.07,397.65a1.15,1.15,0,1,0-1.15,1.18A1.16,1.16,0,0,0,581.07,397.65Zm1.85,26a1.24,1.24,0,1,0-1.24,1.27A1.25,1.25,0,0,0,582.93,423.68Zm1.85,26a1.33,1.33,0,1,0-1.33,1.36A1.34,1.34,0,0,0,584.78,449.71ZM603.51,361a1.06,1.06,0,1,0-1.06,1.09A1.08,1.08,0,0,0,603.51,361ZM594,579.85a1.77,1.77,0,1,0-1.77,1.81A1.79,1.79,0,0,0,594,579.85Zm5.56,78.09a2,2,0,1,0-2,2.08A2.06,2.06,0,0,0,599.61,657.93ZM605.36,387a1.17,1.17,0,0,0-1.15-1.18h0a1.18,1.18,0,1,0,1.15,1.18Zm-6,294.79a2.17,2.17,0,1,0,2.13,2.17A2.15,2.15,0,0,0,599.34,681.79Zm-3.43-75.91a1.86,1.86,0,1,0-1.86,1.9A1.88,1.88,0,0,0,595.9,605.88Zm1.86,26a2,2,0,1,0-2,2A2,2,0,0,0,597.76,631.9Zm37.45-177.47a1.43,1.43,0,0,0-1.42-1.45h0a1.45,1.45,0,1,0,1.42,1.45Zm31.7,93.46a1.77,1.77,0,1,0-1.77,1.81A1.79,1.79,0,0,0,666.92,547.89Zm-1.77-1.81h0Zm5.48,53.87a2,2,0,0,0-1.95-2h0a2,2,0,1,0,1.95,2ZM633.36,428.4a1.33,1.33,0,1,0-1.33,1.36A1.34,1.34,0,0,0,633.36,428.4Zm28,41.4a1.51,1.51,0,1,0-1.51,1.54A1.52,1.52,0,0,0,661.35,469.8Zm3.71,52.06a1.7,1.7,0,0,0-1.68-1.72h0a1.72,1.72,0,1,0,1.68,1.72Zm18.73-88.74a1.43,1.43,0,0,0-1.42-1.45h0a1.45,1.45,0,1,0,1.42,1.45ZM659.5,443.78a1.42,1.42,0,1,0-1.42,1.45A1.43,1.43,0,0,0,659.5,443.78Zm18,283.87a2.45,2.45,0,1,0,2.39,2.44A2.42,2.42,0,0,0,677.5,727.64Zm.54-23.58a2.3,2.3,0,1,0-2.3,2.35A2.33,2.33,0,0,0,678,704.06Zm3.9-297a1.33,1.33,0,1,0-1.33,1.36A1.34,1.34,0,0,0,681.94,407.1ZM672.48,626a2,2,0,1,0-2,2.08A2.06,2.06,0,0,0,672.48,626ZM676.18,678a2.21,2.21,0,1,0-2.22,2.26A2.24,2.24,0,0,0,676.18,678Zm-1.85-26a2.15,2.15,0,0,0-2.12-2.17h0a2.17,2.17,0,1,0,2.13,2.17Zm-5.56-78.08a1.86,1.86,0,1,0-1.86,1.9A1.88,1.88,0,0,0,668.77,573.92Zm-28-41.4a1.68,1.68,0,1,0-1.68,1.72A1.7,1.7,0,0,0,640.77,532.52Zm1.85,26a1.77,1.77,0,1,0-1.77,1.81A1.79,1.79,0,0,0,642.63,558.54Zm-3.71-52.06a1.59,1.59,0,1,0-1.59,1.63A1.61,1.61,0,0,0,638.92,506.49Zm-1.85-26a1.52,1.52,0,0,0-1.51-1.54h0a1.54,1.54,0,1,0,1.51,1.54ZM579.22,371.62a1.07,1.07,0,0,0-1.06-1.09h0a1.09,1.09,0,1,0,1.06,1.09Zm65.26,213a1.86,1.86,0,1,0-1.86,1.9A1.88,1.88,0,0,0,644.48,584.57Zm1.85,26a1.95,1.95,0,1,0-1.95,2A2,2,0,0,0,646.33,610.6Zm11.32-192.85a1.34,1.34,0,0,0-1.33-1.36h0a1.36,1.36,0,1,0,1.33,1.36Zm-5.75,270.94a2.22,2.22,0,1,0-2.21,2.26A2.24,2.24,0,0,0,651.89,688.68Zm3.9-297a1.24,1.24,0,1,0-1.24,1.27A1.25,1.25,0,0,0,655.79,391.72Zm-4.35,320.64a2.35,2.35,0,1,0,2.3,2.35A2.33,2.33,0,0,0,651.45,712.36ZM650,662.66a2.13,2.13,0,1,0-2.12,2.17A2.15,2.15,0,0,0,650,662.66Zm-1.85-26a2,2,0,1,0-2,2.08A2.06,2.06,0,0,0,648.19,636.63Zm15-140.79a1.59,1.59,0,1,0-1.59,1.63A1.61,1.61,0,0,0,663.21,495.83ZM511.91,481.67a1.33,1.33,0,1,0-1.33,1.36A1.35,1.35,0,0,0,511.91,481.67Zm-1.33-1.36h0Zm5,53.42a1.52,1.52,0,0,0-1.51-1.54h0a1.54,1.54,0,1,0,1.51,1.54Zm-1.85-26a1.42,1.42,0,1,0-1.42,1.45A1.43,1.43,0,0,0,513.77,507.7Zm-7.41-104.11a1.08,1.08,0,0,0-1.06-1.09h0a1.09,1.09,0,1,0,1.06,1.09Zm71-58a1,1,0,0,0-1-1h0a1,1,0,1,0,1,1Zm-67.31,110a1.24,1.24,0,1,0-1.24,1.27A1.25,1.25,0,0,0,510.06,455.64ZM524.28,314h0a.82.82,0,1,0,.8.82A.81.81,0,0,0,524.28,314Zm-3.11,321.91a1.9,1.9,0,1,0,1.86,1.9A1.88,1.88,0,0,0,521.17,635.93ZM504.5,377.55a1,1,0,0,0-1-1h0a1,1,0,0,0-1,1h0a1,1,0,1,0,1.95,0Zm18-89.46a.72.72,0,1,0,.71.72h0A.72.72,0,0,0,522.52,288.09Zm-1.34,323.72a1.77,1.77,0,1,0-1.77,1.81A1.79,1.79,0,0,0,521.18,611.81Zm-1.85-26a1.68,1.68,0,1,0-1.68,1.72A1.7,1.7,0,0,0,519.33,585.78Zm-1.85-26a1.59,1.59,0,1,0-1.59,1.63A1.61,1.61,0,0,0,517.47,559.75Zm5-270.21h0Zm-34.9,202.78a1.34,1.34,0,0,0-1.33-1.36h0a1.36,1.36,0,1,0,1.33,1.36Zm-1.85-26a1.24,1.24,0,1,0-1.24,1.27A1.25,1.25,0,0,0,485.77,466.29Zm3.71,52.06a1.42,1.42,0,1,0-1.42,1.45A1.43,1.43,0,0,0,489.48,518.35Zm-5.56-78.09a1.15,1.15,0,1,0-1.15,1.18A1.16,1.16,0,0,0,483.91,440.26Zm7.42,104.11a1.51,1.51,0,1,0-1.51,1.54A1.52,1.52,0,0,0,491.33,544.38Zm10.43-193.76a.91.91,0,1,0,.89.9A.9.9,0,0,0,501.76,350.62Zm-19.7,63.61a1.06,1.06,0,1,0-1.06,1.08A1.08,1.08,0,0,0,482.06,414.23Zm-2.83-27h0a1,1,0,0,0-1,1h0a1,1,0,1,0,1-1Zm19-88.46h0a.73.73,0,1,0,.71.73A.72.72,0,0,0,498.23,298.74Zm-1.77-25.94h0a.63.63,0,1,0,.62.63A.63.63,0,0,0,496.46,272.81Zm-19,88.47a.91.91,0,1,0,.89.91A.9.9,0,0,0,477.47,361.27Zm17.65,259.38a1.81,1.81,0,1,0,1.77,1.81A1.79,1.79,0,0,0,495.12,620.65ZM495,596.43a1.68,1.68,0,1,0-1.68,1.72A1.7,1.7,0,0,0,495,596.43Zm-1.85-26a1.59,1.59,0,1,0-1.59,1.63A1.61,1.61,0,0,0,493.18,570.4Zm15-140.79a1.16,1.16,0,0,0-1.15-1.18h0a1.18,1.18,0,1,0,1.15,1.18Zm52.29,30.75a1.33,1.33,0,1,0-1.33,1.36A1.34,1.34,0,0,0,560.49,460.36Zm-1.85-26a1.24,1.24,0,1,0-1.24,1.27A1.25,1.25,0,0,0,558.64,434.33Zm3.71,52.06a1.43,1.43,0,0,0-1.42-1.45h0a1.45,1.45,0,1,0,1.42,1.45Zm-12-157.07a.91.91,0,1,0,.89.9A.89.89,0,0,0,550.34,329.31Zm13.86,183.1a1.51,1.51,0,1,0-1.51,1.54A1.52,1.52,0,0,0,564.2,512.42ZM552.1,355.25h0a1,1,0,0,0-1,1h0a1,1,0,1,0,1-1Zm2.83,27a1.06,1.06,0,1,0-1.06,1.09A1.07,1.07,0,0,0,554.93,382.27Zm1.85,26a1.16,1.16,0,0,0-1.15-1.18h0a1.18,1.18,0,1,0,1.15,1.18Zm9.27,130.14a1.61,1.61,0,0,0-1.59-1.63h0a1.63,1.63,0,1,0,1.59,1.63Zm5.56,78.09a1.86,1.86,0,1,0-1.86,1.9A1.88,1.88,0,0,0,571.61,616.53Zm1.67,50a2.08,2.08,0,1,0,2,2.08A2.06,2.06,0,0,0,573.28,666.5Zm.18-23.95a2,2,0,0,0-1.95-2h0a2,2,0,1,0,1.95,2Zm-3.71-52.06a1.77,1.77,0,1,0-1.77,1.81A1.79,1.79,0,0,0,569.76,590.5Zm-1.85-26a1.68,1.68,0,1,0-1.68,1.72A1.7,1.7,0,0,0,567.9,564.47Zm-24.29,10.65a1.7,1.7,0,0,0-1.68-1.72h0a1.72,1.72,0,1,0,1.68,1.72ZM538.05,497a1.42,1.42,0,1,0-1.42,1.45A1.43,1.43,0,0,0,538.05,497Zm-1.85-26a1.34,1.34,0,0,0-1.33-1.36h0A1.36,1.36,0,1,0,536.2,471ZM532.49,419a1.15,1.15,0,1,0-1.15,1.18A1.16,1.16,0,0,0,532.49,419Zm1.85,26a1.24,1.24,0,1,0-1.24,1.27A1.25,1.25,0,0,0,534.35,445Zm-3.71-52.06a1.06,1.06,0,1,0-1.07,1.09A1.08,1.08,0,0,0,530.64,392.93Zm-1.85-26a1,1,0,1,0-2,0h0a1,1,0,1,0,2,0Zm18.53,260.28a1.86,1.86,0,1,0-1.86,1.9A1.88,1.88,0,0,0,547.32,627.18Zm1.25-323.81h0a.82.82,0,1,0,.8.82h0A.81.81,0,0,0,548.57,303.37Zm-1.34,347.85a2,2,0,1,0,2,2A2,2,0,0,0,547.23,651.22Zm-1.76-50.06A1.77,1.77,0,1,0,543.7,603,1.79,1.79,0,0,0,545.47,601.16Zm-3.71-52.06a1.59,1.59,0,1,0-1.59,1.63A1.61,1.61,0,0,0,541.76,549.1ZM526,340a.9.9,0,0,0-.89.91h0A.89.89,0,1,0,526,340Zm13.86,183.1a1.52,1.52,0,0,0-1.51-1.54h0a1.54,1.54,0,1,0,1.51,1.54Zm46.73-47.34a1.42,1.42,0,1,0-1.42,1.45A1.43,1.43,0,0,0,586.63,475.74ZM821.92,614.12a2.21,2.21,0,1,0-2.22,2.27A2.24,2.24,0,0,0,821.92,614.12Zm-1.85-26a2.13,2.13,0,1,0-2.13,2.17A2.15,2.15,0,0,0,820.07,588.09Zm3.71,52.06a2.3,2.3,0,1,0-2.3,2.35A2.33,2.33,0,0,0,823.77,640.14ZM816.36,536a1.95,1.95,0,1,0-1.95,2A2,2,0,0,0,816.36,536Zm-1.85-26a1.86,1.86,0,1,0-1.86,1.9A1.88,1.88,0,0,0,814.5,510Zm11.12,156.17a2.39,2.39,0,1,0-2.39,2.45A2.42,2.42,0,0,0,825.63,666.17Zm-13-182.2a1.79,1.79,0,0,0-1.77-1.81h0a1.81,1.81,0,1,0,1.77,1.81Zm5.56,78.09a2,2,0,1,0-2,2.08A2.06,2.06,0,0,0,818.21,562.06Zm16.87-114.77a1.7,1.7,0,0,0-1.68-1.72h0a1.72,1.72,0,1,0,1.68,1.72Zm-1.85-26a1.6,1.6,0,1,0-1.59,1.63A1.61,1.61,0,0,0,833.23,421.27Zm3.71,52.06a1.77,1.77,0,1,0-1.77,1.81A1.79,1.79,0,0,0,836.94,473.32ZM825,689.67a2.54,2.54,0,1,0,2.48,2.53A2.51,2.51,0,0,0,825,689.67Zm6.38-294.43a1.51,1.51,0,1,0-1.51,1.54A1.52,1.52,0,0,0,831.38,395.24ZM786.51,468.6a1.7,1.7,0,0,0-1.68-1.72h0a1.72,1.72,0,1,0,1.68,1.72Zm20.58-62.71a1.51,1.51,0,1,0-1.51,1.54A1.52,1.52,0,0,0,807.09,405.89ZM795.77,598.74a2.13,2.13,0,1,0-2.12,2.17A2.15,2.15,0,0,0,795.77,598.74Zm-.36,23.77h0Zm-1.49-49.79a2,2,0,1,0-2,2.08A2.06,2.06,0,0,0,793.92,572.71Zm-3.71-52.06a1.86,1.86,0,1,0-1.86,1.9A1.88,1.88,0,0,0,790.21,520.66Zm-1.85-26a1.79,1.79,0,0,0-1.77-1.81h0a1.81,1.81,0,1,0,1.77,1.81Zm22.44-36.68a1.7,1.7,0,0,0-1.68-1.72h0a1.72,1.72,0,1,0,1.68,1.72Zm-18.73,88.74a2,2,0,0,0-1.95-2h0a2,2,0,1,0,1.95,2Zm5.56,78.08a2.22,2.22,0,1,0-2.21,2.26A2.24,2.24,0,0,0,797.63,624.77Zm7.61-244.91a1.42,1.42,0,1,0-1.42,1.45A1.43,1.43,0,0,0,805.24,379.86Zm33.56,119.49a1.86,1.86,0,1,0-1.86,1.9A1.88,1.88,0,0,0,838.79,499.35Zm-29.85-67.43a1.59,1.59,0,1,0-1.59,1.63A1.61,1.61,0,0,0,808.94,431.92Zm-7.61,244.91a2.42,2.42,0,0,0-2.39-2.44h0a2.45,2.45,0,1,0,2.39,2.44Zm-1.85-26a2.3,2.3,0,1,0-2.3,2.35A2.33,2.33,0,0,0,799.48,650.8Zm1.23,49.52a2.54,2.54,0,1,0,2.48,2.53A2.51,2.51,0,0,0,800.71,700.32ZM685.64,459.15a1.51,1.51,0,1,0-1.51,1.54A1.52,1.52,0,0,0,685.64,459.15ZM874.2,644.87a2.39,2.39,0,1,0-2.39,2.44A2.42,2.42,0,0,0,874.2,644.87Zm3.9-297a1.42,1.42,0,1,0-1.42,1.45A1.43,1.43,0,0,0,878.1,347.9Zm-5.75,270.94a2.3,2.3,0,1,0-2.3,2.35A2.33,2.33,0,0,0,872.35,618.84Zm1.23,49.52a2.54,2.54,0,1,0,2.48,2.53A2.51,2.51,0,0,0,873.58,668.36Zm-3.08-75.55a2.24,2.24,0,0,0-2.21-2.26h0a2.26,2.26,0,1,0,2.21,2.26Zm-3.71-52.06a2,2,0,1,0-2,2.08A2.06,2.06,0,0,0,866.79,540.75Zm1.85,26a2.13,2.13,0,1,0-2.12,2.17A2.15,2.15,0,0,0,868.64,566.78ZM887.37,478a1.86,1.86,0,1,0-1.86,1.9A1.88,1.88,0,0,0,887.37,478Zm-22.44,36.68a1.95,1.95,0,1,0-1.95,2A2,2,0,0,0,864.94,514.73Zm24.29-10.65a1.95,1.95,0,1,0-1.95,2A2,2,0,0,0,889.22,504.07ZM885.52,452a1.77,1.77,0,1,0-1.77,1.81A1.79,1.79,0,0,0,885.52,452ZM881.81,400a1.59,1.59,0,1,0-1.59,1.63A1.61,1.61,0,0,0,881.81,400Zm-1.85-26a1.51,1.51,0,1,0-1.51,1.54A1.52,1.52,0,0,0,880,373.93ZM883.66,426a1.68,1.68,0,1,0-1.68,1.72A1.7,1.7,0,0,0,883.66,426ZM842.5,551.41a2,2,0,1,0-2,2.08A2.06,2.06,0,0,0,842.5,551.41Zm3.71,52.06a2.22,2.22,0,1,0-2.21,2.27A2.24,2.24,0,0,0,846.21,603.46Zm3.71,52.06a2.39,2.39,0,1,0-2.39,2.45A2.42,2.42,0,0,0,849.91,655.52ZM844,601.2h0Zm4.07,28.29a2.3,2.3,0,1,0-2.3,2.35A2.33,2.33,0,0,0,848.06,629.49Zm-3.71-52.06a2.13,2.13,0,1,0-2.13,2.17A2.15,2.15,0,0,0,844.35,577.43Zm-3.71-52.06a1.95,1.95,0,1,0-1.95,2A2,2,0,0,0,840.65,525.38Zm20.58-62.71a1.77,1.77,0,1,0-1.77,1.81A1.79,1.79,0,0,0,861.23,462.67Zm-1.85-26a1.68,1.68,0,1,0-1.68,1.72A1.7,1.7,0,0,0,859.37,436.64Zm3.71,52.06a1.86,1.86,0,1,0-1.86,1.9A1.88,1.88,0,0,0,863.08,488.7Zm-5.56-78.09a1.59,1.59,0,1,0-1.59,1.63A1.61,1.61,0,0,0,857.52,410.61ZM849.29,679a2.54,2.54,0,1,0,2.48,2.53A2.51,2.51,0,0,0,849.29,679Zm4.53-320.46A1.42,1.42,0,1,0,852.4,360,1.43,1.43,0,0,0,853.82,358.56Zm1.85,26a1.51,1.51,0,1,0-1.51,1.54A1.52,1.52,0,0,0,855.67,384.59Zm-26.14-15.38a1.42,1.42,0,1,0-1.42,1.45A1.43,1.43,0,0,0,829.53,369.21ZM719.2,578.64a1.95,1.95,0,1,0-2,2A2,2,0,0,0,719.2,578.64Zm3.71,52.06a2.13,2.13,0,1,0-2.13,2.17A2.15,2.15,0,0,0,722.91,630.7Zm-1.85-26a2.06,2.06,0,0,0-2-2.08h0a2.08,2.08,0,1,0,2,2.08Zm-3.8-28h0Zm-5.47-102.12a1.59,1.59,0,1,0-1.59,1.63A1.61,1.61,0,0,0,711.79,474.53Zm1.85,26a1.68,1.68,0,1,0-1.68,1.72A1.7,1.7,0,0,0,713.64,500.56Zm1.85,26a1.77,1.77,0,1,0-1.77,1.81A1.79,1.79,0,0,0,715.49,526.59Zm1.86,26a1.86,1.86,0,1,0-1.86,1.9A1.88,1.88,0,0,0,717.35,552.61Zm12.19-140.79h0Zm2.83,0a1.42,1.42,0,1,0-1.42,1.45A1.44,1.44,0,0,0,732.37,411.82Zm-4.52,320.46a2.54,2.54,0,1,0,2.48,2.53A2.51,2.51,0,0,0,727.84,732.28Zm-3.08-75.55a2.22,2.22,0,1,0-2.21,2.26A2.24,2.24,0,0,0,724.76,656.73Zm1.85,26a2.33,2.33,0,0,0-2.3-2.36h0a2.36,2.36,0,1,0,2.3,2.36Zm1.85,26a2.42,2.42,0,0,0-2.39-2.44h0a2.45,2.45,0,1,0,2.39,2.44Zm-24.92,34.15a2.54,2.54,0,1,0,2.48,2.53A2.51,2.51,0,0,0,703.55,742.93Zm-6.79-127.61a2,2,0,1,0-2,2.08A2.06,2.06,0,0,0,696.77,615.32ZM709.93,448.5a1.51,1.51,0,1,0-1.51,1.54A1.52,1.52,0,0,0,709.93,448.5Zm-15,140.79a2,2,0,0,0-1.95-2h0a2,2,0,1,0,1.95,2Zm-3.71-52.06a1.77,1.77,0,1,0-1.77,1.81A1.79,1.79,0,0,0,691.2,537.24Zm-1.85-26a1.68,1.68,0,1,0-1.68,1.72A1.7,1.7,0,0,0,689.35,511.21Zm-1.85-26a1.59,1.59,0,1,0-1.59,1.63A1.61,1.61,0,0,0,687.5,485.18Zm5.56,78.08a1.86,1.86,0,1,0-1.86,1.9A1.88,1.88,0,0,0,693.06,563.27Zm41.16-125.42a1.51,1.51,0,1,0-1.5,1.54A1.52,1.52,0,0,0,734.22,437.85Zm-26.14-15.37a1.42,1.42,0,1,0-1.42,1.45A1.43,1.43,0,0,0,708.08,422.47Zm-9.46,218.88a2.13,2.13,0,1,0-2.13,2.17A2.15,2.15,0,0,0,698.62,641.35Zm5.56,78.08a2.39,2.39,0,1,0-2.39,2.45A2.42,2.42,0,0,0,704.18,719.44Zm-1.85-26a2.3,2.3,0,1,0-2.3,2.35A2.33,2.33,0,0,0,702.33,693.41Zm-1.85-26a2.22,2.22,0,1,0-2.22,2.26A2.24,2.24,0,0,0,700.47,667.38Zm59.89-214.16a1.61,1.61,0,0,0-1.59-1.63h0a1.63,1.63,0,1,0,1.59,1.63Zm7.41,104.11a1.95,1.95,0,1,0-1.95,2A2,2,0,0,0,767.78,557.34Zm16.87-114.77a1.6,1.6,0,1,0-1.59,1.63A1.61,1.61,0,0,0,784.65,442.57ZM765.83,555.34h0Zm5.66,54a2.13,2.13,0,1,0-2.13,2.17A2.15,2.15,0,0,0,771.49,609.39Zm-9.27-130.14a1.68,1.68,0,1,0-1.68,1.72A1.7,1.7,0,0,0,762.22,479.25Zm3.71,52.06a1.86,1.86,0,1,0-1.86,1.9A1.88,1.88,0,0,0,765.93,531.31Zm-1.85-26a1.77,1.77,0,1,0-1.77,1.81A1.79,1.79,0,0,0,764.07,505.28Zm5.56,78.08a2,2,0,1,0-2,2.08A2.06,2.06,0,0,0,769.63,583.36Zm11.31-192.85a1.42,1.42,0,1,0-1.42,1.45A1.43,1.43,0,0,0,780.95,390.51Zm-7.61,244.91a2.21,2.21,0,1,0-2.21,2.26A2.24,2.24,0,0,0,773.34,635.42ZM736.07,463.88a1.61,1.61,0,0,0-1.59-1.63h0a1.63,1.63,0,1,0,1.59,1.63ZM776.42,711a2.54,2.54,0,1,0,2.48,2.53A2.51,2.51,0,0,0,776.42,711Zm.63-23.49a2.42,2.42,0,0,0-2.39-2.45h0a2.45,2.45,0,1,0,2.39,2.45Zm-1.85-26a2.3,2.3,0,1,0-2.3,2.35A2.33,2.33,0,0,0,775.19,661.45Zm7.61-244.91a1.51,1.51,0,1,0-1.51,1.54A1.52,1.52,0,0,0,782.8,416.54ZM741.64,542a1.86,1.86,0,1,0-1.86,1.9A1.88,1.88,0,0,0,741.64,542Zm-.1,24h0Zm17-138.8a1.51,1.51,0,1,0-1.51,1.54A1.52,1.52,0,0,0,758.51,427.2ZM745.34,594a2.06,2.06,0,0,0-2-2.08h0a2.08,2.08,0,1,0,2,2.08Zm-5.56-78.09a1.77,1.77,0,1,0-1.77,1.81A1.79,1.79,0,0,0,739.78,515.93Zm-1.85-26a1.68,1.68,0,1,0-1.68,1.72A1.7,1.7,0,0,0,737.93,489.9ZM743.49,568a1.95,1.95,0,1,0-1.95,2A2,2,0,0,0,743.49,568Zm8.64,153.64a2.54,2.54,0,1,0,2.48,2.53A2.51,2.51,0,0,0,752.13,721.62Zm.62-23.49a2.39,2.39,0,1,0-2.39,2.44A2.42,2.42,0,0,0,752.76,698.13Zm3.9-297a1.42,1.42,0,1,0-2.83,0h0a1.42,1.42,0,1,0,2.83,0ZM747.2,620a2.13,2.13,0,1,0-2.12,2.17A2.15,2.15,0,0,0,747.2,620Zm3.71,52.06a2.3,2.3,0,1,0-2.3,2.35A2.33,2.33,0,0,0,750.91,672.1Zm-1.85-26a2.21,2.21,0,1,0-2.21,2.26A2.24,2.24,0,0,0,749.05,646.07Z"/></g></g></svg>